<?xml version="1.0" encoding="UTF-8" standalone="no"?>
<!-- Created with Inkscape (http://www.inkscape.org/) -->

<svg
   width="1024"
   height="1024"
   viewBox="0 0 270.93333 270.93333"
   version="1.1"
   id="svg1"
   xml:space="preserve"
   inkscape:version="1.3 (0e150ed6c4, 2023-07-21)"
   sodipodi:docname="yemen_hex_logo.svg"
   inkscape:export-filename="yemen_hex_logo.png"
   inkscape:export-xdpi="96"
   inkscape:export-ydpi="96"
   xmlns:inkscape="http://www.inkscape.org/namespaces/inkscape"
   xmlns:sodipodi="http://sodipodi.sourceforge.net/DTD/sodipodi-0.dtd"
   xmlns:xlink="http://www.w3.org/1999/xlink"
   xmlns="http://www.w3.org/2000/svg"
   xmlns:svg="http://www.w3.org/2000/svg"><sodipodi:namedview
     id="namedview1"
     pagecolor="#ffffff"
     bordercolor="#000000"
     borderopacity="0.25"
     inkscape:showpageshadow="false"
     inkscape:pageopacity="0.0"
     inkscape:pagecheckerboard="true"
     inkscape:deskcolor="#d1d1d1"
     inkscape:document-units="mm"
     inkscape:zoom="0.7313903"
     inkscape:cx="252.25929"
     inkscape:cy="502.4677"
     inkscape:window-width="1920"
     inkscape:window-height="1017"
     inkscape:window-x="-8"
     inkscape:window-y="-8"
     inkscape:window-maximized="1"
     inkscape:current-layer="layer1" /><defs
     id="defs1"><linearGradient
   id="linearGradient6"
   inkscape:collect="always"><stop
     style="stop-color:#4c1e1e;stop-opacity:1;"
     offset="0"
     id="stop6" /><stop
     style="stop-color:#2f303b;stop-opacity:0;"
     offset="1"
     id="stop7" /></linearGradient><rect
   x="262.96909"
   y="709.62984"
   width="537.53977"
   height="127.61735"
   id="rect2" /><rect
   x="-351.38558"
   y="715.07649"
   width="705.50567"
   height="124.42057"
   id="rect1" />&#10;	&#10;	&#10;	&#10;		<linearGradient
   id="SVGID_1_"
   gradientUnits="userSpaceOnUse"
   x1="1255.8351"
   y1="-197.3558"
   x2="1260.2952"
   y2="1392.9044"
   gradientTransform="matrix(0.06002556,0,0,0.06002556,89.389771,72.311943)">&#10;		<stop
   offset="0"
   style="stop-color:#FFFFFF;stop-opacity:0.83"
   id="stop2" />&#10;		<stop
   offset="0.56"
   style="stop-color:#FFFFFF;stop-opacity:0.37"
   id="stop3" />&#10;		<stop
   offset="1"
   style="stop-color:#FFFFFF;stop-opacity:0"
   id="stop4" />&#10;	</linearGradient>&#10;	&#10;	&#10;	&#10;	&#10;	&#10;	&#10;	&#10;	&#10;	&#10;	&#10;	&#10;	&#10;	&#10;	&#10;	&#10;	&#10;	&#10;	&#10;	&#10;	&#10;	&#10;	&#10;	&#10;	&#10;	&#10;<clipPath
   clipPathUnits="userSpaceOnUse"
   id="clipPath4"><g
     inkscape:label="Clip"
     id="use4"
     style="fill:url(#linearGradient9);fill-opacity:1"><path
       style="display:inline;fill:url(#linearGradient8);fill-opacity:1;stroke-width:0.361754"
       d="m 229.1337,202.07588 c -17.40941,-10.06697 -43.53709,-25.16319 -58.06151,-33.54716 l -26.40804,-15.24358 -0.0914,-67.314651 c -0.0727,-53.581714 10e-4,-67.388159 0.36175,-67.675002 0.24923,-0.198194 7.94145,-4.671724 17.09382,-9.9411736 9.15238,-5.2694468 29.74522,-17.1478414 45.76188,-26.3964334 16.01665,-9.24859 34.52278,-19.934753 41.12473,-23.747028 6.60195,-3.812275 12.18363,-6.93141 12.40375,-6.93141 0.38008,0 7.1481,3.876318 53.18894,30.463429 28.29508,16.3395079 49.47532,28.572132 56.97624,32.90657 l 6.51157,3.762733 v 67.43308 67.433076 l -37.80328,21.83766 c -20.79181,12.01071 -46.95142,27.11857 -58.13248,33.57302 -11.18105,6.45445 -20.54143,11.72527 -20.80085,11.71291 -0.25942,-0.0124 -14.71573,-8.25907 -32.12514,-18.32604 z m 84.9103,-22.01737 c 28.80643,-16.63022 52.98579,-30.63241 53.7319,-31.11598 l 1.35658,-0.8792 V 86.068666 24.074008 l -7.50639,-4.344535 C 353.8431,15.224855 341.94858,8.3568349 291.26411,-20.898221 l -29.93596,-17.279034 -16.00679,9.242601 c -46.0307,26.5789491 -66.81068,38.5745831 -78.59022,45.367705 l -13.02314,7.51029 -0.0915,62.160374 -0.0915,62.160375 14.19987,8.18943 c 29.82219,17.19925 73.21862,42.26875 82.93311,47.90929 5.57101,3.23471 10.32745,5.8928 10.56986,5.90687 0.24241,0.0141 24.00964,-13.58095 52.81608,-30.21117 z"
       id="path7" /></g></clipPath><linearGradient
   inkscape:collect="always"
   xlink:href="#linearGradient6"
   id="linearGradient8"
   gradientUnits="userSpaceOnUse"
   x1="144.54751"
   y1="85.840692"
   x2="377.99543"
   y2="85.840692" /><linearGradient
   inkscape:collect="always"
   xlink:href="#linearGradient6"
   id="linearGradient9"
   gradientUnits="userSpaceOnUse"
   x1="144.54751"
   y1="85.840692"
   x2="377.99543"
   y2="85.840692" /></defs><g
     inkscape:groupmode="layer"
     id="layer2"
     inkscape:label="Hex"
     style="display:inline"
     sodipodi:insensitive="true"><path
       sodipodi:type="star"
       style="fill:#3b424f;fill-opacity:1;stroke:#2a2f38;stroke-width:5.31362;stroke-linecap:round;stroke-linejoin:round;stroke-dasharray:none;stroke-opacity:1"
       id="path10"
       inkscape:flatsided="true"
       sodipodi:sides="6"
       sodipodi:cx="426.86969"
       sodipodi:cy="-57.157124"
       sodipodi:r1="86.980576"
       sodipodi:r2="75.327385"
       sodipodi:arg1="-1.0289503"
       sodipodi:arg2="-0.50535152"
       inkscape:rounded="0"
       inkscape:randomized="0"
       d="m 471.72718,-131.67844 42.10861,76.108385 -44.85749,74.521313 -86.9661,-1.587068 -42.10861,-76.108382 44.85749,-74.521318 z"
       transform="matrix(1.2994562,-0.77742219,0.77742219,1.2994562,-374.79658,541.86457)"
       inkscape:transform-center-y="1.0619885e-05"
       inkscape:transform-center-x="1.0753011e-05" /></g><g
     inkscape:label="Yemen Map"
     inkscape:groupmode="layer"
     id="layer1"
     style="display:inline"
     transform="matrix(0.96118336,0,0,0.96118336,5.2583608,5.2583608)"><path
       style="display:inline;fill:#ffffff;stroke:#ffffff;stroke-width:0;stroke-miterlimit:4;stroke-dasharray:none;stroke-opacity:1"
       clip-path="none"
       d="m 52.214395,115.39965 c 0.02102,0.0468 0.04243,0.0947 0.06011,0.13947 l -0.06247,0.27302 0.151247,0.15047 c 0.01695,0.0852 0.04407,0.2802 0.01257,0.36574 -0.145562,0.0765 -0.237472,0.10098 -0.403847,0.0734 l -0.144568,-0.11824 c -0.107068,-0.0271 -0.273364,-0.04 -0.368885,-0.097 -0.0854,-0.0507 -0.328028,-0.21508 -0.417989,-0.21921 l -0.08682,-0.10881 -0.06836,-0.013 -0.2526,0.0982 0.0071,0.10488 0.205852,0.26321 -4.02e-4,0.0723 c -0.0874,0.0913 -0.224172,0.27076 -0.222746,0.40619 0.0026,0.27688 -0.04024,0.28832 -0.15871,0.55392 -0.01196,0.15512 -0.05692,0.24391 -0.121783,0.38264 l 0.100569,0.39481 -0.07661,0.12375 c -0.13216,0.0857 -0.27763,0.0557 -0.417201,0.0974 -0.0211,0.006 -0.179693,0.11871 -0.188961,0.11943 -0.406603,0.0251 -0.532571,0.0894 -0.931048,0.26634 -0.08853,0.0238 -0.186748,0.0593 -0.276564,0.0742 -0.123036,0.0206 -0.424967,-0.0216 -0.520916,0.0887 -0.06686,0.0769 -0.145399,0.19116 -0.221959,0.25574 -0.113769,0.0958 -0.286398,0.17127 -0.417989,0.25024 l -0.0165,0.0845 c 0.08198,0.18918 0.265912,0.57837 0.279314,0.75701 l -0.03967,0.3241 -0.02003,0.16225 -0.580236,0.0204 c -0.305808,0.27401 -0.660202,0.40773 -1.054402,0.50952 -0.01483,0.004 -0.03796,0.0131 -0.05264,0.0138 -0.233527,0.012 -0.345702,-0.022 -0.540165,0.0931 -0.04077,-0.006 -0.08727,-0.0361 -0.115497,-0.0628 -0.141284,-0.13459 -0.298918,-0.19303 -0.474559,-0.27814 l -0.156353,0.26478 0.01728,0.0813 0.06797,0.0366 0.01925,0.0723 -0.08407,0.0401 c 0.0921,0.14057 0.187593,0.30943 0.236493,0.47181 -0.02338,0.10336 -0.07162,0.24112 -0.07818,0.34492 -0.0067,0.1065 0.07635,0.28475 0.01375,0.38342 0.08853,0.0635 0.168066,0.22563 0.185031,0.32999 l 0.08368,0.0401 -0.06443,0.068 c -0.002,0.0886 0.0048,0.2609 0.04949,0.34216 l -0.08879,0.132 c 0.06401,0.0643 0.151106,0.26562 0.205852,0.29071 l -0.0091,0.1642 c 0.05532,0.12048 0.149858,0.16252 0.205459,0.33117 l -0.0326,0.0763 0.03535,0.0769 c -0.03236,0.0549 -0.09437,0.11994 -0.152818,0.14731 l 0.07818,0.19722 -0.02043,0.0884 c 0.09509,0.12988 0.0057,0.36784 0.03653,0.45452 0.03208,0.0896 0.14528,0.3649 0.144568,0.44274 -8.04e-4,0.10921 -0.111066,0.21848 -0.07386,0.31742 0.04448,0.0208 0.07751,0.0748 0.09861,0.11393 0.127454,0.23395 0.09768,0.33164 0.02553,0.58455 -0.01168,0.0412 -0.02825,0.0625 -0.03025,0.10528 -6.03e-4,0.009 0.05626,0.26052 0.06168,0.28561 -0.160815,0.43354 -0.238231,0.40554 -0.160674,0.87644 0.02538,0.15511 -0.101451,0.31017 -0.04242,0.50363 -0.08397,0.11234 -0.140206,0.26706 -0.137497,0.40777 0.0012,0.0558 0.02984,0.12697 0.02514,0.18071 -0.0087,0.0948 -0.05542,0.19366 -0.06797,0.28875 -0.02096,0.16053 -0.02331,0.33146 -0.03457,0.49341 -0.126457,0.16866 -0.318439,0.31886 -0.469845,0.46671 -0.07385,0.27044 -0.04779,0.46528 -0.354741,0.56138 l -0.06797,0.30013 -0.213709,0.1536 -0.04282,-0.0891 -0.04832,0.007 c -0.02224,0.0762 0.04509,0.14846 0.05735,0.21803 0.04519,0.25647 -0.162508,0.50965 -0.417989,0.52406 l -0.101748,0.13081 -0.03535,0.008 -0.07111,-0.0566 0.03025,0.11275 -0.03614,0.0192 c -0.02923,-0.0319 -0.09494,-0.0612 -0.138283,-0.0605 l 0.105677,0.10449 0.0075,0.0523 -0.04479,0.0593 -0.0715,-0.009 -0.102534,-0.0939 -0.044,-0.005 c -0.06344,0.17593 0.07841,0.36143 -0.03535,0.52524 l 0.055,0.0939 c 0.07456,-0.0271 0.165654,-0.076 0.244351,-0.0527 0.0643,0.064 0.0026,0.34332 -0.0099,0.43371 l -0.12139,0.0907 c -0.0073,0.19874 -0.09989,0.62774 0.11039,0.75348 0.0107,0.0653 0.02366,0.13096 0.03221,0.19682 l 0.216851,0.2196 c 0.02666,0.17593 -0.0036,0.18752 -0.06522,0.37713 l -0.08446,0.0507 c -0.02096,0.0545 -0.06336,0.19258 -0.04754,0.2526 l -0.03182,0.0196 -0.151246,-0.0302 c 0.115051,0.49072 0.533865,0.29308 0.792766,0.63367 0.143281,0.18862 0.105239,0.25994 0.189353,0.4447 0.0382,0.0834 0.111528,0.1627 0.144175,0.24711 0.05119,0.13329 -0.01212,0.21664 0.146139,0.36377 -0.02024,0.15597 0.02692,0.36798 0.04046,0.52681 l -0.150853,0.23492 -0.0012,0.0887 0.06365,0.009 0.05697,-0.10764 0.03221,-0.0153 c 0.09025,0.0917 0.07359,0.2739 0.011,0.37399 0.06044,0.0816 0.20791,0.293 0.12964,0.40306 0.0041,0.10565 0.122562,0.27681 0.190137,0.34924 l -0.0031,0.82695 c -8.05e-4,0.18134 0.143804,0.31789 0.260851,0.43409 0.09224,0.26789 -0.246069,0.42059 -0.355135,0.59752 l -0.07739,0.23492 -0.0385,0.11707 -0.09154,-0.005 -0.03692,0.0554 c 0.03165,0.13586 0.177732,0.21371 0.206245,0.37281 l -0.02867,0.0479 -0.08211,-0.11746 -0.03575,-8.1e-4 -0.04949,0.10371 -0.04321,-0.0373 c -0.007,-0.11291 -0.129444,-1.13225 -0.298957,-1.14907 l -0.02239,0.20466 -0.05147,-0.0451 -0.05264,0.0754 -0.04321,-0.0523 0.002,-0.13317 -0.04714,-0.037 -0.04046,0.0723 -0.05185,0.011 -0.06718,-0.0691 -0.06011,0.003 c -0.04362,-0.096 -0.106578,-0.20309 -0.03928,-0.30603 -0.01511,-0.0803 -0.225475,-0.26152 -0.286779,-0.30957 l -0.122961,-0.0176 c -0.10051,0.0515 -0.153433,0.15047 -0.210173,0.24199 l -0.04754,-0.004 c 0.02138,-0.43754 0.126211,-0.73389 0.2856,-1.13337 l -0.05028,-0.0891 -0.172853,0.14221 c -0.03792,0.12689 -0.05075,0.28998 -0.03378,0.42113 l -0.166961,0.27107 -0.167353,0.0259 -0.02121,0.0397 c 0.0083,0.30581 0.293917,0.54713 0.399133,0.8297 l -0.02043,0.0723 -0.04321,-0.0653 -0.03614,0.008 -0.04125,0.0959 -0.06011,0.035 c 0.02409,0.18163 -0.0344,0.27108 -0.145746,0.40111 -0.02152,0.0252 -0.05904,0.0722 -0.09939,0.0778 -0.03949,-0.005 -0.4022,-0.0447 -0.417597,-0.0499 -0.03507,-0.0116 -0.04717,-0.0332 -0.07739,-0.0546 l -0.155174,-0.1096 c -0.071,-0.0421 -0.134951,-0.0417 -0.201531,-0.11118 -0.0442,-0.0123 -0.121864,0.003 -0.162639,0.0204 -0.02224,0.0509 -0.09863,0.2481 -0.07268,0.30171 0.09039,0.11876 0.203259,0.24403 0.28167,0.37006 0.02994,0.0479 0.03673,0.12889 0.06168,0.1815 0.04292,0.0902 0.10231,0.18002 0.151639,0.26713 0.0018,0.003 0.05644,0.0368 0.06286,0.0409 0.09994,0.002 0.43368,0.007 0.511094,-0.0848 l 0.05736,-0.1481 -0.04557,-0.18935 0.04517,-0.0758 c 0.355846,-0.11733 0.976462,0.0149 1.307788,0.15125 0.136721,0.0562 0.263802,0.14383 0.399526,0.20271 0.08155,0.0354 0.180559,0.0584 0.265958,0.086 0.114053,0.07 0.218482,0.15536 0.318992,0.20782 0.0144,0.007 0.0979,0.0103 0.119426,0.0173 0.222975,0.0727 0.66597,0.37485 0.78373,0.57473 0.03949,0.067 0.04535,0.1711 0.08014,0.24238 0.0231,0.0476 0.07705,0.0917 0.105283,0.1379 0.08497,0.13929 0.0444,0.26816 0.02985,0.42269 -0.03421,0.0364 -0.137446,0.16336 -0.130032,0.21882 0.01011,0.024 0.08989,0.20545 0.09232,0.21842 0.01995,0.10022 0.0043,0.22299 0.01493,0.32607 0.02009,0.19746 0.05953,0.37194 0.126105,0.55785 0.01398,0.0388 0.01266,0.0657 0.03575,0.0998 0.0073,0.0106 0.244684,0.22898 0.269493,0.25222 0.03051,0.0287 0.123225,0.0595 0.12964,0.0684 0.111915,0.14998 0.282596,0.33314 0.369276,0.49538 0.02894,0.0543 0.02814,0.0918 0.04596,0.15046 l 0.09075,0.3021 c 0.09538,0.25705 0.194468,0.16744 0.269887,0.5826 0.0096,0.0535 -0.0043,0.1185 0.0016,0.17324 0.01711,0.16182 0.05416,0.32657 0.08054,0.48753 l -0.09861,0.19917 c 0.06486,0.1862 -0.08915,0.35633 -0.126497,0.52485 l -0.08447,0.0475 -0.01257,0.0436 0.09271,0.19839 -0.105283,0.12767 c -0.09067,-0.10164 -0.0806,-0.24329 -0.185816,-0.33666 -0.04705,-0.0418 -0.491981,-0.43057 -0.506381,-0.44981 -0.0058,-0.008 -0.197171,-0.47186 -0.213709,-0.51149 -0.02923,-0.07 -0.01706,-0.24565 0.0027,-0.31978 l 0.109212,-0.1155 -0.07464,-0.0935 0.0326,-0.0397 0.111962,-0.0184 -0.01532,-0.0566 c -0.06587,0.002 -0.235891,0.0177 -0.291493,0.0605 l -0.06718,0.28009 c 0.13672,0.21044 0.170861,0.51325 0.229029,0.75191 0.04818,0.19846 0.155365,0.17934 0.284815,0.28128 0.107924,0.0851 0.185178,0.20066 0.329599,0.29817 l 0.07229,0.23021 c 0.179776,0.068 0.345271,0.27824 0.395597,0.45688 0.04705,0.16737 0.154311,0.43297 0.16971,0.60105 -0.02623,0.0294 -0.05008,0.0609 -0.07347,0.0924 0.04434,0.0469 0.07246,0.14943 0.07347,0.21174 l 0.112747,0.12767 -0.01257,0.0688 -0.05931,-0.009 -0.0051,0.0566 0.20703,0.24827 -0.06404,0.0354 -0.117462,-0.11865 c -0.04149,0.0603 0.132919,0.46806 0.164996,0.48203 l 0.0436,-0.009 0.09507,0.11393 -0.04203,0.0463 0.0043,0.0385 c 0.06215,0.0457 0.141377,0.15113 0.153211,0.22982 l 0.06954,-0.0275 c 0.0041,0.008 0.01336,0.0192 0.01493,0.0275 0.07969,0.40731 -0.109432,0.3354 -0.09389,0.48124 0.04719,0.13373 0.08143,0.26164 0.229422,0.31939 l 0.0095,0.14495 0.110388,0.0188 c 0.0043,0.009 0.01092,0.0193 0.01376,0.0291 0.09694,0.34886 0.243959,0.74111 0.243959,1.10823 0,0.13444 -0.03419,0.25566 -0.0275,0.3948 0.0099,0.20616 0.04868,0.44694 0.01219,0.65095 l -0.07857,0.0263 -0.0066,0.0648 c 0.128881,0.11363 0.30823,0.44944 0.141426,0.60342 l -0.09154,-0.0101 -0.06129,-0.0707 -0.06835,-0.34177 -0.07779,-0.0734 -0.09704,0.005 -0.06561,0.12335 -0.04242,-0.0653 0.02121,-0.12021 c -0.04748,-0.11005 -0.126122,-0.19073 -0.206245,-0.27656 l -0.0715,-0.0173 c -0.08469,-0.0977 -0.02766,-0.23429 -0.157532,-0.36417 l -0.03535,-0.013 -0.03221,0.0475 c 0.08853,0.20801 0.19172,0.4201 0.268707,0.6321 0.0603,0.16537 0.092,0.34526 0.147318,0.51306 0.0181,0.0553 0.06206,0.11043 0.07661,0.16617 0.02884,0.1094 0.04266,0.23078 0.05618,0.35239 H 149.57967 c 0.0281,-0.0278 0.0559,-0.0577 0.0781,-0.0994 0.0613,-0.11463 0.0794,-0.26487 0.14222,-0.37793 0.0947,-0.17008 0.23683,-0.34224 0.34846,-0.50362 0.0237,-0.0343 0.0578,-0.0684 0.0848,-0.10022 0.17238,-0.20245 0.34176,-0.42467 0.52524,-0.61599 0.071,-0.0741 0.19978,-0.13773 0.28561,-0.21999 0.02,-0.0193 0.0275,-0.0357 0.0515,-0.0499 l 0.2259,-0.0767 c 0.23452,-0.0328 0.35058,0.21658 0.57198,0.12021 l 0.0318,0.10022 c 0.0816,0.006 0.20004,0.11922 0.24239,0.1811 l 0.0754,0.008 0.0519,-0.0366 c 0.0184,-0.20857 -0.0703,-0.34397 0.0385,-0.56295 0.0888,-0.17935 0.47194,-0.28849 0.62306,-0.37831 0.19189,-0.11392 0.69268,-0.56099 0.9004,-0.54331 0.0618,-0.13301 0.19756,-0.14295 0.31389,-0.19328 0.17436,-0.0757 0.27451,-0.23046 0.4282,-0.32214 0.0186,-0.011 0.19542,-0.0502 0.23021,-0.0641 0.32805,-0.13087 0.63479,-0.33609 0.96484,-0.45884 0.14841,-0.0552 0.33751,-0.0827 0.49262,-0.1206 0.0353,-0.009 0.0727,-0.0247 0.10725,-0.0366 l 0.0118,-0.0727 0.0676,0.0161 c 0.068,-0.0837 0.26911,-0.0982 0.36535,-0.14024 0.0521,-0.0226 0.0983,-0.0828 0.15046,-0.1049 0.0818,-0.0345 0.18281,-0.0404 0.26634,-0.0719 0.0693,-0.0261 0.13304,-0.0787 0.20232,-0.1045 0.095,-0.0354 0.21807,-0.0313 0.30603,-0.0884 0.0858,-0.0556 0.15476,-0.15095 0.24671,-0.20114 0.0421,-0.023 0.106,-0.0239 0.14693,-0.0479 0.0821,-0.0486 0.15158,-0.1287 0.23413,-0.17718 0.0924,-0.0543 0.20369,-0.0848 0.29778,-0.13632 0.10721,-0.0587 0.21558,-0.1573 0.32607,-0.20506 0.33745,-0.14599 0.70346,-0.26075 1.04889,-0.38892 0.0301,-0.011 0.13393,-0.0101 0.17129,-0.02 l 0.93773,-0.24867 c 0.0567,-0.0151 0.1185,-0.0433 0.17638,-0.0491 0.41929,-0.0423 0.82222,-0.0826 1.22254,-0.22667 0.0938,-0.0337 0.18593,-0.11066 0.27775,-0.15242 0.19802,-0.0899 0.38902,-0.11499 0.60145,-0.14379 l 0.031,-0.004 c 0.0385,-0.0646 0.20735,-0.085 0.27421,-0.11236 0.2475,-0.1015 0.50243,-0.21308 0.74366,-0.32842 0.0618,-0.0295 0.11669,-0.0843 0.17914,-0.11235 0.0797,-0.0361 0.17434,-0.048 0.25417,-0.0837 0.0674,-0.0299 0.12784,-0.0862 0.19485,-0.11628 0.0975,-0.0438 0.36727,0.0862 0.56059,0.0652 0.0789,-0.009 0.15923,-0.0498 0.23807,-0.0597 0.24165,-0.0311 0.55816,-0.0433 0.66509,0.22746 0.0371,0.0941 0.0594,0.1938 0.0337,0.2966 l 0.0436,0.0279 c 0.0707,-0.0974 0.42147,-0.13336 0.55234,-0.18425 0.26319,-0.1025 0.55011,-0.24228 0.82027,-0.31899 0.1189,-0.0336 0.31403,-0.0282 0.44078,-0.0393 0.13059,-0.0116 0.25958,0.11783 0.41327,0.10999 0.1008,-0.005 0.19182,-0.0761 0.29817,-0.0314 0.1172,-0.1517 0.0784,-0.0858 0.12768,-0.29739 0.0101,-0.0101 0.0645,-0.0674 0.0723,-0.0719 0.26817,-0.15439 0.53712,-0.30702 0.80102,-0.46827 0.28015,-0.17108 1.13763,-0.83193 1.48692,-0.47337 l 0.0754,-0.008 c 0.02,-0.0963 0.1352,-0.21766 0.2196,-0.26086 l 0.0358,-0.0959 c 0.0693,-0.0301 0.18851,-0.19647 0.22786,-0.25692 0.0549,0.0103 0.18469,-0.0468 0.2306,-0.0711 0.0117,-0.0161 0.13429,-0.18975 0.13985,-0.19288 0.33218,-0.18962 0.54328,-0.32957 0.84894,-0.55982 0.11576,-0.0871 0.26707,-0.0217 0.37399,-0.10685 0.0696,-0.0556 0.12664,-0.13171 0.19564,-0.18817 0.11605,-0.0948 1.19634,-0.40035 1.39736,-0.43684 0.10721,-0.0195 0.22824,-0.004 0.33431,-0.0267 0.12446,-0.0264 0.24657,-0.0925 0.37045,-0.12297 0.0768,-0.0188 0.16538,-0.0101 0.24279,-0.0271 0.081,-0.0181 0.17426,-0.074 0.25496,-0.0833 0.0972,-0.0111 0.21451,0.0206 0.31388,0.0177 0.0593,-0.002 0.45482,-0.0552 0.50913,-0.0707 0.28713,-0.083 0.5985,-0.24987 0.89177,-0.11629 0.0759,-0.0308 0.15746,-0.0744 0.23531,-0.0951 0.14727,-0.0392 0.98463,-0.29021 1.09526,-0.29621 0.032,-0.002 0.23712,0.042 0.25024,0.0374 l 1.33961,-0.4836 c 0.12389,-0.0447 0.31193,0.008 0.43724,-0.0334 l 1.13965,-0.3791 c 0.0208,-0.007 0.23869,-0.004 0.27932,-0.011 0.0687,-0.0116 0.14209,-0.054 0.21096,-0.0711 0.23138,-0.0579 0.47263,-0.0875 0.70515,-0.14457 0.29427,-0.072 0.58833,-0.16545 0.8843,-0.22746 0.11748,-0.0247 0.24991,0.003 0.36653,-0.0341 l 0.0279,-0.0558 0.0601,0.024 c 0.18078,-0.0505 0.37253,-0.0927 0.5496,-0.15322 0.24165,-0.0825 0.46413,-0.20486 0.71419,-0.27656 0.0401,0.0337 0.15116,0.0363 0.19878,0.0298 0.20187,-0.16709 0.29427,-0.13862 0.48673,-0.21803 0.17736,-0.0731 0.3537,-0.17063 0.52721,-0.25416 0.0195,-0.009 0.043,-0.0147 0.0633,-0.0221 0.13344,-0.0473 0.26816,-0.10194 0.40346,-0.143 0.10606,-0.0322 0.22163,-0.0443 0.32684,-0.0786 0.0649,-0.0211 0.11351,-0.08 0.18778,-0.0825 l 0.13043,0.0767 c 0.0632,-0.0326 0.20227,-0.0205 0.26713,-0.006 l 0.0515,-0.0275 c -0.0101,-0.0499 0.008,-0.13098 0.0374,-0.17246 l 0.51856,-0.20939 c 0.1236,-0.0499 0.20048,-0.0125 0.32253,0.0507 l 0.0122,-0.0283 -0.0471,-0.1045 0.0322,-0.0726 c 0.10052,-0.0608 0.24793,-0.0939 0.36299,-0.10528 l 0.11196,-0.11196 0.0833,0.0928 0.0322,-0.007 0.0483,-0.12453 0.17168,-0.0707 c 0.0192,-0.0854 0.10399,-0.19645 0.17285,-0.24749 0.3041,0.007 0.5578,-0.2032 0.83794,-0.28717 0.0944,-0.0284 0.20879,-0.0176 0.30289,-0.0459 0.11363,-0.0342 0.22226,-0.11365 0.33588,-0.14615 0.0518,-0.0148 0.14332,0.008 0.19564,-0.006 0.22084,-0.0611 0.29043,-0.21791 0.54135,-0.02 0.13587,-0.0299 0.21824,-0.0245 0.35866,-0.013 0.12831,-0.11306 0.41194,-0.0681 0.5826,-0.176 l -0.13397,-0.14613 c -0.12032,-0.006 -0.26366,-0.0684 -0.31741,-0.18347 -0.23053,-0.49314 0.6589,-0.85884 0.97269,-1.00568 l 0.17481,-0.0813 c 0.62459,-0.29184 1.2769,-0.47162 1.93713,-0.65881 0.0874,-0.0248 0.30301,0.22105 0.34807,0.26439 0.0696,0.044 0.23026,0.004 0.29542,-0.0295 l -0.0314,-0.0405 -0.0994,-0.0208 -0.0353,-0.0566 0.009,-0.0841 0.0967,-0.1159 -0.143,-0.0455 -0.0118,-0.0444 c 0.0143,-0.069 0.12836,-0.17625 0.18111,-0.21488 l 0.0837,0.0126 0.0612,-0.13986 c 0.10693,-0.0466 0.21963,-0.0899 0.32371,-0.14182 0.0292,-0.0147 0.0508,-0.045 0.0802,-0.0597 0.18791,-0.094 0.38313,-0.20812 0.57631,-0.28796 0.0529,-0.0216 0.17423,-0.0195 0.22313,-0.042 0.0807,-0.0374 0.15852,-0.12431 0.2365,-0.1705 0.15811,-0.0935 0.30997,-0.10075 0.47535,-0.15635 0.0696,-0.0234 0.13495,-0.0751 0.20467,-0.0986 0.071,-0.0241 0.16133,-0.0344 0.23532,-0.0503 0.0101,-0.002 0.0429,-0.0206 0.0534,-0.0259 0.10166,-0.0495 0.21338,-0.11639 0.3186,-0.15517 0.1668,-0.0613 0.3397,-0.0869 0.51149,-0.15164 0.38821,-0.14613 0.75988,-0.31715 1.15222,-0.4506 0.0507,-0.0172 0.11434,-0.0117 0.16382,-0.0306 l 0.66391,-0.25457 c 0.0891,-0.0342 0.19189,-0.007 0.28285,0.007 0.20044,-0.0899 0.2796,-0.40031 0.5107,-0.47259 l 0.033,-0.12807 c -0.11477,-0.0774 -0.11044,-0.23586 -0.15163,-0.35121 -0.008,-0.0221 -0.0534,-0.0734 -0.0589,-0.0931 -0.16396,-0.58794 -0.29517,-1.14864 -0.42191,-1.74699 -0.0275,-0.13017 0.10642,-0.29257 0.2306,-0.31467 l -0.004,-0.0283 -0.0912,-0.0652 -0.0192,-0.0762 0.0499,-0.15242 -0.0982,-0.24554 0.0209,-0.0645 0.10764,0.0294 0.02,-0.0314 -0.2357,-0.36025 c -0.048,-0.073 -0.32158,-0.029 -0.41682,-0.22076 -0.0131,-0.0268 -0.0648,-0.35642 -0.0645,-0.36654 0.006,-0.11862 0.0598,-0.24498 0.0715,-0.36416 0.007,-0.0655 -0.0423,-0.13493 -0.0103,-0.20507 0.0775,-0.16909 0.16069,-0.16973 0.0754,-0.35278 l -0.0959,0.007 -0.0314,-0.0366 -0.0228,-0.12846 -0.11157,-0.0291 c -0.005,-0.009 -0.0297,-0.0445 -0.0314,-0.0527 -0.0964,-0.45664 -0.0445,-0.47561 0.0887,-0.93026 0.02,-0.0686 0.0677,-0.14413 0.0982,-0.20899 l -0.0684,-0.10803 c 0.12004,-0.21641 0.21019,-0.43755 0.30642,-0.66666 0.006,-0.0131 -0.003,-0.0523 0.003,-0.0649 0.0914,-0.20317 0.2596,-0.38237 0.35356,-0.58496 0.12617,-0.27259 0.0207,-0.61812 0.10685,-0.90354 0.0655,-0.21684 0.17841,-0.33764 0.25968,-0.51699 0.0913,-0.20188 0.1648,-0.42105 0.24592,-0.62777 0.0237,-0.0604 0.0898,-0.13432 0.12964,-0.18621 0.10307,-0.13388 0.21237,-0.26655 0.31074,-0.40385 0.10493,-0.14656 0.193,-0.31402 0.30407,-0.45531 0.0625,-0.0799 0.16218,-0.15939 0.23531,-0.23138 0.0555,-0.0546 0.14562,-0.11079 0.19053,-0.16697 0.0897,-0.11177 0.14857,-0.25235 0.23453,-0.36141 0.0988,-0.12518 0.21263,-0.24488 0.31742,-0.36536 l 0.0279,-0.0318 c 0.19518,-0.2073 0.39671,-0.45686 0.60971,-0.64035 0.42826,-0.36867 0.87863,-0.71905 1.31603,-1.07719 0.008,-0.006 0.0822,-0.0102 0.0959,-0.0169 0.32747,-0.16096 0.65565,-0.33796 0.9884,-0.48595 0.39006,-0.17336 0.79745,-0.32307 1.19308,-0.48359 0.63741,-0.2582 1.31186,-0.41671 1.95284,-0.66234 0.2562,-0.0984 0.50054,-0.25168 0.75388,-0.35947 0.1092,-0.0464 0.23511,-0.0683 0.34688,-0.1096 0.15982,-0.0593 0.31606,-0.14271 0.47731,-0.19602 0.13372,-0.044 0.27555,-0.0404 0.4117,-0.0978 0.14642,-0.0617 0.18204,-0.12421 0.28954,-0.18936 0.10606,-0.0643 0.24396,-0.13692 0.35788,-0.18582 0.17093,-0.0732 0.36506,-0.14182 0.54213,-0.19957 0.0464,-0.0151 0.10534,-0.0103 0.15125,-0.0267 0.0641,-0.0229 0.12365,-0.0721 0.18738,-0.0947 0.33304,-0.11733 0.22039,0.0469 0.53859,-0.25103 0.11078,-0.10379 1.14573,-0.28497 1.3459,-0.32803 0.26989,-0.0579 0.54352,-0.11689 0.80927,-0.19132 0.0789,-0.0219 0.15662,-0.0665 0.23531,-0.0837 0.13373,-0.0288 0.26838,-0.0298 0.39128,-0.10803 l -0.39953,-0.8898 z m 159.527455,3.31053 -0.18581,0.0707 z m -176.198326,1.3565 -0.0385,0.0413 0.06561,0.0507 0.116283,-0.0153 c 0.146275,0.0538 0.238787,0.1119 0.295814,0.26202 l 0.06404,-0.10371 -0.01178,-0.0845 c -0.110063,0.006 -0.239679,-0.13506 -0.491453,-0.15046 z m 8.753818,0.71734 -0.06757,0.11668 c 0.0211,0.098 0.02736,0.20545 0.02907,0.30524 0.07684,0.0591 0.140033,0.11498 0.194066,0.19839 l 0.150461,0.0585 -0.0051,-0.0609 -0.156746,-0.0837 c -0.07313,-0.12575 -0.187757,-0.33436 -0.122176,-0.47849 z m -7.746557,0.2585 -0.201138,0.02 -0.05579,0.0691 0.01375,0.0279 c 0.06986,-0.0216 0.206279,-0.0357 0.276564,-0.005 l 0.04203,-0.0275 0.0075,-0.042 -0.08289,-0.0424 z m 2.496152,0.29385 c -0.06257,0.003 -0.124881,0.0102 -0.173639,0.0259 l -0.07464,0.0664 -0.01728,0.0581 0.0825,0.009 0.04242,-0.066 c 0.07114,-0.0423 0.255221,-0.0397 0.332349,-0.0314 l -0.01611,-0.0581 c -0.04983,-0.004 -0.113032,-0.006 -0.175602,-0.004 z m -1.792563,0.18385 -0.08407,0.062 -0.06914,0.007 -0.02082,0.0479 c 0.0489,-0.004 0.23044,-0.0311 0.25653,-0.0813 l -0.01336,-0.0346 -0.06914,-8.1e-4 z m -1.336859,0.39325 -0.430168,0.33509 c -0.02324,0.0398 -0.06249,0.14544 -0.04125,0.19249 l 0.06443,0.0491 -0.02318,0.0794 0.02475,0.0169 0.122569,-0.11196 -0.02003,-0.097 0.302885,-0.46395 z m -5.044161,0.13003 -0.05224,0.0475 -0.04046,0.1367 0.05146,0.17325 -0.02396,0.0641 0.15596,0.0244 0.0605,-0.0763 c -0.0596,-0.0615 -0.08189,-0.23504 -0.07975,-0.31389 z m 3.946545,0.0354 -0.04872,0.0333 c -0.06344,0.11562 0.03138,0.29691 -0.06129,0.48753 l 0.05146,0.11667 0.100177,0.0483 0.03182,-0.0645 0.131998,-0.0192 0.01611,-0.068 c -0.02894,-0.0264 -0.09209,-0.10508 -0.08682,-0.14928 l 0.03182,-0.0723 0.07268,-0.02 -0.07936,-0.12728 c -0.04063,-0.001 -0.127402,-0.0231 -0.151639,-0.0613 v -0.042 l 0.03221,-0.0149 0.05972,0.0554 0.01178,-0.0334 -0.04832,-0.0624 -0.06365,-0.007 z m 2.251801,0.068 c -0.176784,0.0834 -0.386432,0.38671 -0.518165,0.4235 l -0.077,-0.0122 -0.03142,0.12847 c 0.006,0.0365 0.03583,0.12438 0.07504,0.14063 0.224402,-0.0745 0.430125,0.13655 0.6042,0.0389 l 0.05185,-0.0684 c -0.01011,-0.0498 0.01514,-0.13389 0.05264,-0.16853 l -0.01178,-0.0963 0.07268,-0.10882 c -0.05446,-0.0744 -0.116346,-0.18411 -0.130032,-0.27735 h -0.088 z m 2.221552,0.20231 v 4.1e-4 c -0.05575,0.13031 -0.152031,0.30602 -0.258101,0.40424 l 0.02043,0.0326 0.111568,0.0165 c 0.01925,0.0921 0.09226,0.22925 0.170103,0.286 l 0.06875,-0.12021 c 0.06544,-0.0658 0.49986,-0.003 0.59595,0.0471 l 0.03575,-0.0318 -0.07111,-0.097 0.04439,-0.11667 c -0.04063,0.0219 -0.176129,0.0828 -0.224316,0.0676 l -0.127282,-0.0891 -0.06797,0.004 -0.0715,-0.0848 -0.112355,-4e-4 -0.06757,-0.10921 0.04871,-0.14024 -0.09546,-0.0688 z m -1.701422,0.43371 -0.06757,0.0161 -0.033,0.12021 -0.155568,0.0802 -0.01257,0.10062 0.03182,0.0605 c 0.04091,0.0243 0.116948,0.0358 0.163424,0.0248 l 0.04399,-0.0523 c -0.0058,-0.0938 0.04342,-0.23179 0.09389,-0.30878 l -0.06443,-0.0412 z m 1.973666,0.32724 -0.06011,0.044 0.05579,0.0444 0.139852,0.009 c 0.03051,0.0294 0.115984,0.0855 0.163032,0.077 l 0.0326,-0.0401 c -0.01084,-0.0464 -0.268441,-0.13734 -0.331169,-0.13435 z m -1.842848,0.7912 c -0.08612,0.0776 -0.157894,0.21364 -0.196816,0.32056 l 0.03064,0.209 c 0.04605,0.026 0.101974,0.0993 0.107248,0.15321 0.02339,0.0192 0.07188,0.0368 0.102532,0.0326 0.01953,-0.078 0.122264,-0.0932 0.166175,-0.15203 l 0.04517,-0.21253 -0.03221,-0.0767 c -0.168942,-0.0514 -0.201217,-0.10001 -0.222745,-0.2742 z m -1.475142,1.2626 c -0.03008,0.0172 -0.09771,0.0289 -0.131211,0.0342 l -0.077,0.0687 -0.0066,0.0633 0.221566,-0.10999 -0.0066,-0.0562 z m 2.262409,0.67885 c -0.04648,0.003 -0.109224,0.0627 -0.133176,0.0982 l -0.08368,0.024 -0.01218,0.0601 0.01964,0.0444 0.07189,0.0208 0.07582,-0.024 z m 3.059888,3.23903 c -0.03037,0.0277 -0.182075,0.15203 -0.186209,0.18581 l 0.03142,0.037 0.18621,-0.17836 z m 0.451381,2.70475 -0.152817,0.0664 c -0.05731,0.15682 -0.186862,0.2459 -0.244744,0.39403 l 0.03142,0.0409 0.07975,0.0294 c 0.114624,-0.0891 0.141168,-0.27444 0.208602,-0.39519 0.02152,-0.0385 0.08084,-0.047 0.09311,-0.10332 l -0.01532,-0.0322 z m -4.127254,0.42702 -0.04046,0.0511 0.119033,0.35945 -0.01611,0.044 -0.08407,0.007 c 0.0076,0.0988 0.04821,0.22388 0.104105,0.30642 0.05888,-0.0106 0.128379,-0.0422 0.175996,-0.0782 l 0.427026,0.005 c 0.01255,1.5e-4 0.04266,0.0109 0.05579,0.0141 0.240653,0.0598 0.757223,0.20056 0.984475,0.0358 l 0.02043,-0.0515 -0.03064,-0.0931 0.01689,-0.0436 -0.03574,-0.0527 -0.386563,0.0188 -0.08721,-0.0939 c -0.06801,0.022 -0.373864,0.0867 -0.434882,0.0184 l 0.04871,-0.0314 0.07582,-0.003 -0.0271,-0.0649 c -0.290553,0.0117 -0.614029,-0.36171 -0.885477,-0.34845 z m 1.992128,0.22275 c -0.04292,0.0209 -0.0815,0.094 -0.08564,0.13946 l 0.01925,0.0409 0.167746,-0.0337 0.0047,-0.0483 -0.03496,-0.0726 z m -3.462556,0.30878 -0.06797,0.0192 c -0.07157,0.0438 -0.195572,0.36921 -0.14496,0.44393 l 0.115496,0.0213 c 0.06572,0.0223 0.105598,0.30416 0.119426,0.36731 l 0.113926,0.11393 0.05185,0.005 0.0326,-0.0322 c -0.08041,-0.27345 -0.144862,-0.58781 -0.149283,-0.87408 l -0.07111,-0.0645 z m 6.581765,0.0318 -0.04833,0.0188 c -0.0087,0.1082 -0.04091,0.28031 -0.104496,0.37241 l 0.02671,0.0645 0.04007,-0.011 c 0.04049,-0.0519 0.10061,-0.31164 0.120996,-0.38421 l -0.03496,-0.0605 z m -2.004307,0.0883 -0.36692,0.0153 -0.0087,0.0763 0.342956,-0.0157 0.0605,-0.0511 -0.02789,-0.0248 z m 0.557844,0.98802 c -0.06871,0.001 -0.180073,0.0255 -0.236102,0.0692 l -0.01257,0.0519 c 0.02609,0.0596 0.116466,0.12955 0.173639,0.15478 l 0.02121,0.15322 c 0.07413,0.0676 0.04859,0.0588 0.146532,0.086 0.136864,-0.0499 0.410397,-0.12657 0.559808,-0.0967 l 0.0079,-0.0275 c -0.123605,-0.0101 -0.267589,-0.0263 -0.332742,-0.14574 l -0.167353,-0.0224 -0.160281,-0.22275 z m -0.703983,1.35611 c -0.03792,0.007 -0.09061,0.0446 -0.108426,0.079 l -0.203495,0.0172 -0.04871,0.0436 0.03182,0.0366 c 0.08925,0.0275 0.250169,-0.0379 0.320171,-0.088 l 0.02396,-0.044 z m -11.997167,0.12571 -0.06404,0.0153 -0.245922,0.29071 -0.116283,0.0389 -0.01257,0.0558 0.03889,0.073 0.34217,0.0636 c 0.09353,0.0174 0.258707,-0.12287 0.257708,-0.22195 -0.03236,-0.11036 -0.09304,-0.25787 -0.19996,-0.31547 z m 8.762854,0.59635 c -0.03134,-0.001 -0.05623,2e-4 -0.06757,0.006 l -0.0099,0.0652 c 0.173221,0.079 0.240755,0.52766 0.334706,0.6859 0.05175,0.0871 0.379064,0.31134 0.487131,0.35397 l 0.03378,-0.0727 c 0.0044,-0.0713 -0.453152,-0.37043 -0.534272,-0.4286 l -0.08054,-0.38657 0.116284,-0.15242 c -0.03187,-0.0348 -0.185652,-0.0672 -0.279708,-0.0711 z m 2.355513,0.47652 c -0.06387,-0.0226 -0.345442,0.15878 -0.40974,0.19485 l 0.07897,0.092 0.161853,0.0283 0.0495,-0.024 -0.0079,-0.0409 -0.0715,-0.0589 0.03378,-0.0479 c 0.07257,-0.0216 0.201483,-0.0124 0.266351,0.0299 l 0.03064,0.10724 0.04007,0.009 0.05068,-0.0809 c 0.06187,0.009 0.171237,-0.009 0.219994,-0.0523 l -0.02318,-0.0495 c -0.197172,0.0697 -0.268155,-0.005 -0.419562,-0.10725 z m 2.161839,0.85758 v 4.1e-4 c -0.188037,-0.007 -0.372778,0.23016 -0.588092,0.26359 l 0.02985,0.17206 c -0.0058,0.0452 -0.05779,0.10475 -0.09743,0.12414 l -0.05265,0.003 0.06522,-0.0829 -0.0071,-0.0287 -0.05224,0.004 c -0.170936,0.14457 -0.278742,0.33537 -0.420739,0.50403 -0.04434,0.0526 -0.117505,0.096 -0.157139,0.15085 -0.0048,0.007 -0.0329,0.10571 -0.03732,0.11982 l 0.03025,0.11746 -0.06954,0.0916 c 0.0012,0.009 0.0044,0.0494 0.0079,0.0562 0.221978,0.44595 0.193232,0.33389 0.116676,0.82105 -0.03236,0.20516 -0.359582,0.11456 -0.422311,0.28835 0.0016,0.009 0.01645,0.0979 0.01886,0.10062 0.180774,0.2167 0.499334,0.7053 0.831658,0.66666 l 0.04439,-0.0279 0.07818,-0.20782 0.08407,-0.0432 0.01257,-0.0519 -0.08682,-0.033 0.0087,-0.0322 0.06757,-0.0314 c 0.0432,-0.11135 0.252042,-0.26994 0.347277,-0.32882 l 0.02907,-0.10021 -0.01886,-0.0405 -0.141818,0.18307 -0.03928,-0.0448 -0.08368,0.003 -0.01925,-0.0566 0.08132,-0.12374 0.09507,0.009 0.033,-0.0684 0.08368,-0.0106 -0.04557,-0.17285 c -0.03949,-0.0379 -0.08115,-0.0743 -0.121783,-0.11078 l 0.0079,-0.02 0.088,-0.0106 0.02435,-0.0358 -0.06561,-0.17403 0.03378,-0.12768 0.177173,-0.16263 0.01336,-0.0479 -0.05067,-0.12532 0.02868,-0.0719 0.07975,0.009 0.0161,-0.0401 -0.01453,-0.0767 c 0.01866,-0.0652 0.06896,-0.15919 0.122569,-0.2031 l -0.01532,-0.0405 c -0.12275,-10e-4 -0.195427,0.0497 -0.304064,0.0844 -0.01897,0.006 -0.07681,0.004 -0.09193,0.0106 -0.09823,0.0457 -0.205572,0.13886 -0.297385,0.20075 l -0.02907,0.0845 -0.03614,0.0153 -0.109999,-0.14221 -0.166174,-0.0542 -0.03967,-0.0609 0.02082,-0.0362 c 0.137579,-0.0456 0.404144,-0.13133 0.551558,-0.12492 l 0.05933,0.0405 0.02435,-0.0436 -0.07818,-0.11785 c 0.05831,-0.024 0.161205,-0.0993 0.177173,-0.16617 l -0.02318,-0.0444 -0.107248,0.003 -0.143782,0.14495 -0.03732,-0.0463 c 0.08383,-0.0596 0.193382,-0.23273 0.243566,-0.31899 l 0.05146,-0.0114 0.06325,0.0409 c 0.0576,-0.0181 0.334592,-0.0838 0.348849,-0.14339 l -0.09428,-0.10174 0.06522,-0.11197 -0.01571,-0.0366 c -0.0271,-0.0124 -0.05367,-0.0186 -0.08054,-0.0196 z m -0.139068,0.68355 c -0.03764,0.0231 -0.1088,0.0879 -0.117069,0.13514 l 0.02318,0.0244 0.128068,-0.0385 0.01257,-0.0436 z m -9.724544,3.42014 c -0.09437,0.0682 -0.06804,0.63507 -0.03182,0.73502 l 0.0275,0.0248 0.115497,-0.0188 0.08879,-0.11942 0.04792,0.0165 c 0.06316,-0.16709 -0.0662,-0.53856 -0.184246,-0.62895 l -0.06364,-0.009 z m -0.352776,0.26909 c -0.06259,0.0379 -0.07125,0.11577 -0.09036,0.17993 0.01569,0.0894 0.089,0.32019 0.179532,0.3681 l 0.04399,-0.004 0.02828,-0.0605 -0.122569,-0.44745 -0.03889,-0.0366 z m 2.10684,1.97485 c -0.04563,0.0216 -0.09646,0.1114 -0.113141,0.15518 l 0.04714,0.0527 0.0436,0.009 0.07189,-0.0358 0.02435,-0.0436 -0.07386,-0.13749 z m 0.391276,0.20192 c -0.03821,0.0545 -0.171002,0.21487 -0.245137,0.22157 -0.06301,0.16552 0.158414,0.53688 0.295422,0.62698 l 0.05107,-0.003 c 0.02309,-0.06 0.09139,-0.13856 0.149282,-0.16736 l 0.02043,-0.0601 c -0.105215,-0.19004 0.01883,-0.32642 -0.03378,-0.49067 -0.03265,-0.0576 -0.09428,-0.0855 -0.145747,-0.12256 l -0.09154,-0.005 z m -0.283636,0.79945 -0.06443,0.0358 -0.04636,0.22471 0.03182,0.0444 c 0.0432,-0.004 0.110846,0.0207 0.142212,0.0503 l 0.03614,-0.007 0.02043,-0.0483 -0.04282,-0.0848 0.0605,-0.0754 -0.137496,-0.13906 z m 12.848466,1.57767 -0.07582,0.0558 -0.0062,0.13632 0.05106,0.0252 0.0935,-0.12336 -0.02239,-0.0691 z m -0.0043,5.63422 c -0.08184,0.0679 -0.248886,0.12315 -0.355527,0.11118 l -0.02553,0.0959 c 0.02837,0.085 0.439518,0.42946 0.525629,0.50717 l 0.07072,0.009 0.0051,-0.0401 -0.13396,-0.11903 -0.01061,-0.0684 0.02867,-0.0515 c 0.06458,-0.0188 0.309021,-0.0591 0.323706,-0.14811 l -0.01925,-0.0366 c -0.05418,0.006 -0.168184,0.0342 -0.207817,0.077 l -0.21803,0.001 -0.05107,-0.0495 -0.0075,-0.0475 c 0.01897,-0.0569 0.134162,-0.14198 0.181496,-0.1705 l -0.04321,-0.0609 -0.06286,-0.009 z m 0.471809,1.13691 -0.06797,0.0389 -0.108033,0.30839 c 0.03265,0.10107 0.217886,0.30975 0.288743,0.38616 l 0.0436,0.009 0.02435,-0.0397 -0.03849,-0.0931 0.01257,-0.0483 -0.125319,-0.10646 c -0.04106,-0.0818 -0.07374,-0.231 -0.05107,-0.32253 l 0.07268,-0.0672 0.0083,-0.0357 -0.05933,-0.0295 z"
       id="rect6"
       inkscape:connector-curvature="0"
       sodipodi:insensitive="true" /><path
       style="display:inline;fill:#ce1126;stroke:#ffffff;stroke-width:0.412903;stroke-miterlimit:4;stroke-dasharray:none;stroke-opacity:1"
       clip-path="none"
       d="m 199.9474,75.172085 c -0.0137,0.0051 -8.10188,1.674047 -16.62726,2.962855 -8.56717,1.295083 -17.57128,2.209767 -17.57128,2.209767 l -14.04312,1.53289 c 0,0 -14.43504,7.163895 -14.64889,7.27082 -0.21385,0.106927 -1.21168,0.605842 -1.38988,0.890978 -0.17822,0.285135 -9.23131,11.690565 -9.55209,12.153915 -0.32078,0.46334 -1.92477,5.09666 -1.99606,5.31051 -0.0713,0.21385 -0.46316,0.81987 -0.46316,0.81987 0,0 -3.92066,2.17434 -4.06323,2.28126 -0.14256,0.10693 -0.57009,0.35632 -0.85522,0.35632 h -2.74444 l -4.20582,-5.66722 c 0,0 -2.13859,0.28525 -3.02964,0.42781 -0.89104,0.14257 -4.41964,0.42788 -5.23941,0.32096 -0.81976,-0.10693 -11.262752,-1.3189 -11.726098,-1.35454 -0.463341,-0.0357 -2.744218,-0.28514 -3.064995,-0.39206 -0.320776,-0.10693 -1.639816,-1.14047 -1.924952,-1.28304 -0.285134,-0.14256 -0.926583,-0.39206 -1.140435,-0.39206 h -9.40948 c 0,0 -0.962155,0.35624 -1.247291,0.46316 -0.285132,0.10693 -0.713057,-0.0355 -1.247684,-0.32056 -0.534628,-0.28513 -2.031486,-0.17842 -2.708681,-0.0715 -0.677195,0.10691 -2.85168,0.69259 -2.85168,0.69259 l -0.44313,-0.29189 c -0.298252,0.60663 -0.251041,0.55305 -0.683164,1.10507 l -0.608912,-0.61205 c -0.165092,-0.16566 -0.139441,-0.17273 -0.395206,-0.18228 l -0.513842,-0.0188 -0.119426,-0.0939 -0.0491,0.044 0.0031,0.1045 c -0.118616,0.16665 -0.557708,0.83796 -0.668627,0.94047 l -0.610483,0.56373 -1.100367,-0.15085 c -0.132729,-0.13145 -0.102961,-0.45871 -0.08486,-0.62424 l -0.01965,-0.0366 -0.09625,-0.0256 -0.146534,0.13082 c -0.111485,-0.0896 -0.348871,-0.12662 -0.485165,-0.0978 l -0.184245,-0.12689 -0.144962,-0.002 -0.149675,0.0872 -0.0546,-0.12178 0.01806,-0.1764 c -0.05175,-0.0168 -0.117271,-0.0305 -0.164603,-0.0546 -0.02423,-0.0123 -0.1156,-0.0804 -0.131996,-0.0856 -0.02224,-0.007 -0.479324,-0.0281 -0.522094,-0.0306 l -0.365349,0.21292 c -0.08469,0.0282 -0.396479,-0.13653 -0.480452,-0.17403 l -0.0271,-0.009 c -0.06715,-0.0221 -0.149874,-0.0408 -0.213317,-0.0703 -0.179206,-0.0837 -0.356058,-0.54807 -0.744839,-0.74837 -0.0596,-0.0306 -0.161347,-0.0441 -0.228638,-0.0625 l -0.358669,-0.50677 c -0.123607,-0.17493 -0.292564,-0.39795 -0.488308,-0.50402 -0.304382,-0.16481 -0.617109,-0.33663 -0.892549,-0.54763 -0.233952,-0.17922 -0.456977,-0.38777 -0.682377,-0.57866 -0.05532,-0.0467 -0.128261,-0.086 -0.188567,-0.12651 l -0.133567,0.0585 c -0.220838,-0.15455 -0.438133,-0.33904 -0.687483,-0.44824 -0.55416,-0.242795 -1.007882,-0.242181 -1.56589,-0.0519 l -0.245138,0.0837 c -0.02138,0.0104 -0.276906,0.22071 -0.322527,0.25692 -0.0077,0.006 -0.02087,0.0131 -0.02671,0.0209 -0.489434,0.6551 -0.857156,1.33109 -0.892941,2.16026 -0.01483,0.34601 0.195914,0.35499 0.102534,0.77941 -10e-4,0.004 -0.04194,0.0476 -0.04635,0.0527 -0.005,0.0506 0.103488,0.19582 0.152817,0.21607 l 0.337849,0.0354 c 0.100368,0.0823 0.218534,0.20216 0.328028,0.26831 0.181487,0.10992 0.329045,0.0533 0.480451,0.27343 l 0.0071,0.077 -0.106071,0.1316 0.08014,0.057 0.18503,0.0138 c 0.134869,0.10107 0.336236,0.29253 0.245137,0.48869 -0.1343,-0.0385 -0.32998,-0.0501 -0.466702,-0.0122 l -0.04517,0.0967 -0.148888,0.0145 -0.238851,0.187 c -0.155684,-0.0491 -0.373344,-0.0428 -0.530738,-0.009 l -0.154782,0.16028 c -0.207578,0.0555 -0.400562,0.10522 -0.596734,0.19603 l -0.07857,0.26047 c 0.02823,0.19317 0.176901,0.35312 0.289528,0.5048 l -0.0055,0.14497 c -0.115908,0.11519 -0.230461,0.25956 -0.392846,0.31073 l -0.03653,0.088 0.03535,0.11275 c -0.03849,0.0814 -0.274078,0.14552 -0.351207,0.15793 l 0.0031,0.0887 0.07543,0.097 -0.05618,0.52249 -0.302885,0.15439 -0.0491,0.0962 c -0.0023,0.14556 0.0067,0.36776 0.0605,0.50677 0.08297,-0.0539 0.374486,-0.2192 0.479273,-0.19681 l 1.105082,0.95972 c -0.04619,0.34844 -1.327631,0.11159 -1.318791,0.46317 l 0.04204,0.92947 c 0.0107,0.1008 0.02355,0.28959 0.117069,0.374 l -0.298957,0.2141 c -0.201448,0.0191 -0.233203,0.0209 -0.426239,0.12532 -0.02067,0.0113 0.01126,0.17874 0.01454,0.20938 l -0.04085,0.088 c 0.113199,0.10864 0.166757,0.25832 0.137104,0.41957 l 0.144962,-0.0475 c 0.07884,0.0628 0.09061,0.11481 0.146922,0.19878 0.08212,0.12232 0.186787,0.2389 0.277744,0.35552 0.101365,0.005 0.184886,-0.009 0.271852,0.0589 l 0.217243,-0.0224 0.06364,0.0362 0.06285,0.10961 0.141032,-0.0149 c 0.08883,0.14086 0.112201,0.24054 0.160675,0.40778 l 0.266743,0.23099 0.180318,-0.0263 0.04832,0.0283 c 0.02794,0.24222 0.0262,0.42334 -0.105676,0.61795 l 0.135924,0.0742 0.09703,0.3465 -0.233745,0.15085 c -0.07755,0.0221 -0.351611,-0.0866 -0.465523,-0.0974 0.0546,0.13373 0.04383,0.15071 0.01846,0.27461 l -0.176782,0.12256 c -0.0178,0.1163 0.02934,0.23174 0.07975,0.34414 H 218.17866 l -4.5637,-10.16218 -1.11961,-0.15596 -0.044,-0.13867 0.13828,-0.033 -0.0138,-0.0279 0.53231,-0.76919 -13.17138,-28.900218 0.0106,-0.04046 z"
       id="rect8"
       inkscape:connector-curvature="0"
       sodipodi:insensitive="true" /><g
       id="g26"
       sodipodi:insensitive="true"
       style="display:inline"><path
         id="rect10"
         clip-path="none"
         style="display:inline;fill:#000000;stroke:#ffffff;stroke-width:0.412903;stroke-miterlimit:4;stroke-dasharray:none;stroke-opacity:1"
         d="m 221.33533,195.50527 c -0.0878,0.002 -0.16836,0.0416 -0.26183,0.0704 -0.0467,0.0145 -0.1085,-0.004 -0.14785,0.0285 l -0.0263,0.0672 c 0.0445,0.0111 0.0909,0.0399 0.13602,0.0543 0.003,0.0342 0.0404,0.0804 0.0699,0.0952 0.10494,0.0174 0.17111,-0.002 0.26506,-0.0231 0.0467,-0.0103 0.25393,0.0419 0.31881,0.057 l 0.0667,-0.0253 0.0414,-0.0823 -0.0194,-0.0575 c -0.0289,-0.0148 -0.0916,-0.0118 -0.12204,-0.007 -0.061,-0.0285 -0.0954,-0.1005 -0.15,-0.13172 -0.0619,-0.0355 -0.11718,-0.0472 -0.16989,-0.0457 z" /><path
         id="path26"
         clip-path="none"
         style="display:inline;fill:#000000;stroke:#ffffff;stroke-width:0.412903;stroke-miterlimit:4;stroke-dasharray:none;stroke-opacity:1"
         d="m 217.43803,194.6429 c -0.0704,3.9e-4 -0.1647,0.0424 -0.23656,0.0532 -0.0169,0.003 -0.15168,-0.005 -0.15753,-0.002 -0.16566,0.0807 -0.41144,0.2167 -0.60376,0.19731 l -0.029,0.0559 0.0355,0.0527 c 0.13971,0.0659 0.32685,0.0537 0.43548,0.10269 0.11833,0.0533 0.22383,0.17939 0.34301,0.22957 0.10579,0.0446 0.28868,0.0615 0.4043,0.086 0.0715,0.015 0.15147,0.072 0.20323,0.11935 0.0613,0.0107 0.40846,-0.11274 0.43441,-0.15537 0.0637,-0.11505 -0.0484,-0.26077 0.001,-0.37796 -0.0265,-0.12446 -0.28911,-0.28404 -0.38548,-0.33978 -0.24336,0.069 -0.30624,-0.023 -0.44409,-0.0221 z" /><path
         id="path25"
         clip-path="none"
         style="display:inline;fill:#000000;stroke:#ffffff;stroke-width:0.412903;stroke-miterlimit:4;stroke-dasharray:none;stroke-opacity:1"
         d="m 201.26117,193.4343 v 5.4e-4 c -0.0783,0.005 -0.16841,0.0293 -0.27957,0.0925 l -0.0129,0.0323 0.0629,0.0489 -0.0715,0.0839 c 0.006,0.007 0.057,0.0675 0.0618,0.0693 0.11974,0.0495 0.25405,0.0934 0.36881,0.15162 0.0336,0.0171 0.16564,0.12305 0.18817,0.13118 0.11448,0.0413 0.44751,0.10968 0.56613,0.0419 l 0.19194,0.086 0.1086,0.18225 c 0.0888,0.073 0.32985,0.0609 0.43279,0.0489 l 0.0704,0.0366 c 0.2264,-0.0596 0.3654,0.12094 0.68817,0.0355 0.13928,0.0583 0.13775,0.40565 0.33065,0.42204 0.17151,0.0147 0.3751,0.0129 0.54247,0.0462 0.0377,0.007 0.1664,0.0952 0.20376,0.10269 0.14927,0.0295 0.31975,-0.0483 0.40215,-0.0522 0.0906,-0.004 0.18793,0.0238 0.27904,0.0231 0.15169,-10e-4 0.31032,-0.0774 0.44946,-0.12796 0.0566,-0.0206 0.25356,0.0532 0.30645,0.0753 l 0.0522,-0.0677 -0.0156,-0.0565 -0.12097,-0.11828 c -0.10834,-0.21399 0.30009,-0.39091 0.41828,-0.45806 l 0.0204,-0.0366 -0.0118,-0.0403 c -0.12247,-0.011 -0.26897,0.17655 -0.44247,0.16828 -0.19161,-0.009 -0.38582,-0.063 -0.57742,-0.0704 -0.0208,-8e-4 -0.1229,0.0413 -0.15,0.043 -0.18434,0.011 -0.35296,-0.10396 -0.51021,-0.1828 -0.007,-0.003 -0.0176,-0.004 -0.0253,-0.007 -0.0254,-0.007 -0.22911,-0.0633 -0.24194,-0.064 -0.0262,-0.001 -0.16514,0.0404 -0.20107,0.0419 -0.0852,0.004 -0.17734,-0.0227 -0.26344,-0.0231 -0.46363,-0.003 -0.80605,0.11311 -1.17473,-0.23333 l -0.16936,0.002 -0.0274,-0.0226 c -0.18762,-0.1554 -0.39172,-0.30068 -0.6301,-0.37097 -0.0947,-0.0278 -0.22729,0.0325 -0.31882,-0.0306 -0.15646,0.0835 -0.26784,0.009 -0.4258,-0.003 -0.0237,-0.002 -0.0481,-0.002 -0.0742,-5.4e-4 z" /><path
         id="path24"
         clip-path="none"
         style="display:inline;fill:#000000;stroke:#000000;stroke-width:0;stroke-miterlimit:4;stroke-dasharray:none;stroke-opacity:1"
         d="m 55.295305,186.15959 -0.408064,0.10161 -0.03387,0.0564 c 8.05e-4,0.0847 0.223945,0.23276 0.301075,0.25914 l 0.03118,-0.021 c -0.0097,-0.0426 -0.05901,-0.10067 -0.101076,-0.11505 l -0.0086,-0.0478 0.02634,-0.0285 0.171505,0.0806 0.02581,-0.0855 0.06774,0.0306 0.0414,0.0763 -0.05538,0.16989 0.03226,0.0436 0.163441,-0.0876 0.0086,0.0516 -0.04032,0.10592 0.06667,0.003 0.08495,-0.0661 0.05645,-0.13817 c -0.0052,-0.0646 -0.03083,-0.2242 -0.07688,-0.27581 z" /><path
         id="path23"
         clip-path="none"
         style="display:inline;fill:#000000;stroke:#ffffff;stroke-width:0.412903;stroke-miterlimit:4;stroke-dasharray:none;stroke-opacity:1"
         d="m 225.85468,185.294 v 5.3e-4 c -0.4287,0.0265 -0.37901,-0.0423 -0.67527,0.20323 l -0.26022,0.0124 c -0.0535,0.0182 -0.11497,0.12778 -0.13279,0.17526 l 0.0231,0.0403 -0.0876,0.0226 -0.10053,0.18387 c -0.10522,0.19161 -0.44559,0.0659 -0.60484,0.0919 -0.19104,0.0311 -0.4472,0.17377 -0.59946,0.28925 -0.0101,0.0371 -0.0216,0.0742 -0.029,0.11183 l 0.10431,0.13871 c -0.0622,0.11177 -0.0346,0.22769 0.0392,0.32634 -0.22112,0.35371 -0.0172,0.65451 -0.11881,0.9 l -0.0806,0.13333 c -0.1323,0.21941 -0.30072,0.26069 -0.53709,0.31344 -0.11334,0.0253 -0.42816,0.13772 -0.50914,0.12473 l -0.16828,-0.13494 c -0.0575,-0.0116 -0.15198,0.0132 -0.19731,0.0495 l -0.0769,0.11989 0.0462,0.10108 c 0.32164,0.20429 0.66235,0.39762 0.97258,0.61774 0.1226,0.0869 0.24479,0.18163 0.37097,0.2629 0.035,0.0227 0.0868,0.0306 0.12096,0.0543 0.13829,0.0963 0.30081,0.23612 0.44893,0.31183 0.23652,0.12075 0.52079,0.21003 0.76828,0.30968 0.0131,0.005 0.0779,0.078 0.0892,0.0989 0.0151,0.0278 0.16126,0.30384 0.16882,0.31183 0.13973,0.14855 0.34963,0.25585 0.49892,0.39785 0.0855,0.0813 0.15317,0.20624 0.23172,0.29677 0.0962,0.11107 0.20507,0.21688 0.30645,0.32366 0.004,0.005 0.0271,0.0593 0.0312,0.0683 -0.0208,0.0526 -0.0509,0.18189 -0.0237,0.23764 l 0.0543,0.0446 c 0.48473,-0.009 1.11507,0.37633 1.58011,0.51989 0.15083,0.0464 0.32024,0.0732 0.49032,0.11183 0.24051,0.009 0.4841,0.0123 0.72419,0.028 0.22754,0.0147 0.44465,0.0543 0.67634,0.0468 0.25448,-0.008 0.48958,-0.0516 0.73549,-0.11021 0.0975,-0.0233 0.22826,-0.0701 0.32634,-0.0774 0.035,-0.003 0.22131,0.0399 0.24355,0.0355 0.28399,-0.0556 0.57814,-0.17493 0.85914,-0.25107 0.30907,-0.0838 0.40382,-0.0575 0.68225,-0.0898 0.0735,-0.008 0.14764,-0.0428 0.22151,-0.0527 0.0672,-0.009 0.142,0.006 0.2086,-0.005 0.0518,-0.008 0.0808,-0.0428 0.14032,-0.0435 0.25649,-0.003 0.49745,0.0393 0.74409,0.11881 l 0.23817,-0.0806 0.0855,-0.18333 c 0.20258,-0.20701 0.97385,-0.20685 1.28065,-0.21398 0.0137,-2e-4 0.0283,-0.002 0.0419,-0.001 0.0944,0.008 0.21155,0.006 0.30323,0.0253 0.0481,0.0103 0.10018,0.0607 0.14838,0.071 0.31321,0.0667 0.66064,-0.36098 0.96075,-0.46989 0.0833,-0.20644 0.21942,-0.27632 0.42742,-0.34247 0.0319,0.0292 0.19649,-0.0197 0.23656,-0.0285 0.0816,-0.0518 0.0418,-0.30228 0.11667,-0.39623 0.0874,-0.11007 0.30537,-0.21224 0.42043,-0.28011 0.21471,-0.12673 0.47776,-0.19069 0.7301,-0.17473 l 0.0882,-0.0989 0.10483,0.0866 c 0.24036,0.0206 0.52815,-0.0365 0.75484,-0.11129 0.0905,-0.0299 0.15285,-0.1036 0.25807,-0.12043 0.0536,-0.008 0.11732,0.003 0.16935,-0.009 0.0762,-0.0171 0.15036,-0.0628 0.22634,-0.0806 0.0684,-0.0158 0.15485,-0.0165 0.22527,-0.0242 0.005,-4e-4 0.0372,-0.0198 0.043,-0.0231 0.0343,-0.13301 0.17155,-0.17464 0.29516,-0.1715 0.056,-0.0844 0.16793,-0.17439 0.26344,-0.2086 l 0.005,-0.0597 -0.0699,-0.0661 -0.0145,-0.065 c 0.31493,-0.74463 0.7512,-0.34286 1.34785,-0.73764 l 0.0333,-0.0215 c 0.0421,0.0121 0.16287,0.0283 0.20108,-0.004 l 0.0323,-0.0516 -0.0177,-0.0849 -0.043,-0.0285 c -0.0938,0.0189 -0.25352,-0.0256 -0.32096,-0.0952 l -0.0484,0.003 c -0.23697,0.23623 -0.27885,0.26563 -0.65054,0.24624 -0.28014,-0.19717 -0.61876,-0.38633 -0.83548,-0.65592 l -0.0629,-0.0134 -0.0876,0.0468 c -0.16154,0.0381 -0.70655,-0.35637 -0.81989,-0.44946 -0.0718,-0.0165 -0.18872,-0.0122 -0.25645,0.0194 l -0.23871,-0.0887 -0.13118,0.0382 -0.13656,-0.0753 -0.17796,0.0172 c -0.0833,-0.11691 -0.19715,-0.064 -0.29354,-0.10645 -0.11747,-0.0516 -0.26361,-0.19329 -0.42957,-0.26129 l -0.0876,-0.15807 c -0.13614,-0.0624 -0.45116,-0.11724 -0.58817,-0.0226 -0.0765,-0.0711 -0.11643,-0.13876 -0.20269,-0.20376 -0.0179,-0.0133 -0.0303,-0.0172 -0.0452,-0.0339 -0.006,-0.006 -0.0397,-0.0888 -0.0452,-0.10161 l -0.086,-0.0462 -0.0833,-0.21452 -0.11989,0.10269 -0.42258,0.0564 -0.0866,-0.021 c -0.25905,-0.16266 -0.43474,-0.29474 -0.66613,-0.49462 -0.10521,-0.0908 -0.37462,-0.1058 -0.50323,-0.0935 l -0.0602,0.0516 -0.036,0.24838 c -0.0933,0.20088 -0.66983,0.31353 -0.84946,0.38011 -0.11407,0.0422 -0.23172,0.10886 -0.34248,0.16075 -0.19718,0.0926 -0.43432,0.0793 -0.64677,0.0559 l -0.0726,0.0753 c -0.0814,0.007 -0.19404,0.0703 -0.25806,0.11666 -0.0698,-0.0473 -0.2385,-0.0416 -0.31506,-0.0258 -0.68775,-0.38593 -0.29009,-0.17188 -0.97258,-0.0683 l -0.0495,0.15268 -0.064,0.0468 c -0.005,0.23266 -0.29557,0.3395 -0.37526,0.52527 -0.56,0.25063 -1.01829,-0.20199 -1.15215,-0.16721 l -0.11559,0.0903 -0.0393,0.003 -0.0108,-0.0479 0.0366,-0.0962 c -0.0254,-0.0161 -0.0542,-0.0309 -0.0779,-0.0495 -0.48675,-0.37567 -0.99371,-0.71344 -1.50269,-1.0586 -0.093,-0.0633 -0.49367,-0.44985 -0.56881,-0.43602 -0.0893,0.0622 -0.18716,0.009 -0.28011,0.0199 -0.13443,0.0162 -0.28743,0.10293 -0.42742,0.0823 -0.18634,-0.0277 -0.29515,-0.11992 -0.5043,-0.0441 -0.17678,-0.0877 -0.28261,-0.23742 -0.48763,-0.22473 z" /><path
         id="path22"
         clip-path="none"
         style="display:inline;fill:#000000;stroke:#000000;stroke-width:0;stroke-miterlimit:4;stroke-dasharray:none;stroke-opacity:1"
         d="m 77.216771,184.82733 c -0.0365,0.0312 -0.12197,0.0742 -0.17258,0.0677 l 0.05215,0.0559 0.154838,0.0134 0.04194,-0.0532 -0.04032,-0.0758 z" /><path
         id="path21"
         clip-path="none"
         style="display:inline;fill:#000000;stroke:#000000;stroke-width:0;stroke-miterlimit:4;stroke-dasharray:none;stroke-opacity:1"
         d="m 52.23402,175.21229 -0.03495,0.0371 c -0.04091,0.10835 -0.0064,0.2232 0.05591,0.31559 l 0.04086,0.0124 0.02204,-0.0188 c -0.04933,-0.0816 -0.07503,-0.25457 -0.08387,-0.34624 z" /><path
         id="path20"
         clip-path="none"
         style="display:inline;fill:#000000;stroke:#ffffff;stroke-width:0.412903;stroke-miterlimit:4;stroke-dasharray:none;stroke-opacity:1"
         d="m 43.854465,169.25317 -0.03064,0.21666 -0.227957,0.16559 0.0027,0.0806 0.03065,0.0403 0.144085,-0.0581 0.08656,0.0215 0.02796,-0.0242 c -0.06829,-0.14357 -0.01984,-0.21343 0.04032,-0.34516 l 0.04409,-0.0274 -0.0038,-0.0403 -0.0672,-0.001 z" /><path
         id="path19"
         clip-path="none"
         style="display:inline;fill:#000000;stroke:#ffffff;stroke-width:0.412903;stroke-miterlimit:4;stroke-dasharray:none;stroke-opacity:1"
         d="m 44.00554,168.88489 -0.03226,0.0398 -0.0129,0.0962 0.03817,0.0489 0.09301,-0.10269 -0.02688,-0.0651 z" /><path
         id="path18"
         clip-path="none"
         style="display:inline;fill:#000000;stroke:#ffffff;stroke-width:0.412903;stroke-miterlimit:4;stroke-dasharray:none;stroke-opacity:1"
         d="m 44.971667,167.75586 -0.02796,0.0199 c -0.0134,0.0473 0.0211,0.13864 0.04462,0.17742 l 0.04785,-0.007 0.02419,-0.0436 c -0.0089,-0.0401 -0.04679,-0.12852 -0.08871,-0.14677 z" /><path
         id="path17"
         clip-path="none"
         style="display:inline;fill:#000000;stroke:#ffffff;stroke-width:0.412903;stroke-miterlimit:4;stroke-dasharray:none;stroke-opacity:1"
         d="m 44.538872,166.61822 -0.08064,0.12473 -0.07957,0.0301 -0.04032,0.0634 c -0.07913,0.0558 -0.235212,0.11145 -0.33387,0.0962 -0.04662,0.0506 -0.141147,0.11598 -0.21129,0.12581 l -0.06559,0.14784 c -0.04847,0.0522 -0.172525,0.077 -0.239246,0.0731 l -0.163441,0.14624 c -0.08027,0.20501 -0.09991,0.41393 -0.115591,0.63064 -0.11277,0.0908 -0.227923,0.19098 -0.317742,0.32742 l 0.02688,0.10323 -0.02419,0.0274 -0.07043,-0.0575 -0.06075,0.1 -0.07957,0.0312 -0.0328,0.0597 c -0.0086,0.12476 0.08987,0.30667 0.23387,0.29355 l 0.187097,-0.0742 0.04301,0.0452 0.06559,-0.2285 c 0.157964,-0.12702 0.111367,-0.0704 0.201612,-0.24623 0.08668,-0.0323 0.240498,-0.0412 0.329032,-0.008 0.118615,-0.0573 0.13823,-0.13695 0.212365,-0.22634 0.01084,-0.0131 0.06098,-0.0354 0.06882,-0.0473 0.05261,-0.0807 0.196603,-0.36988 0.14086,-0.46882 l 0.03656,-0.0473 0.102688,-0.0145 0.06505,-0.11236 c 0.03179,-0.0261 0.09779,-0.0459 0.138709,-0.0382 l 0.04462,-0.0962 c -0.04776,-0.15825 -0.03673,-0.36296 0.09785,-0.47688 0.02196,-0.0552 -0.01522,-0.19079 -0.03548,-0.2414 z" /><path
         id="path16"
         clip-path="none"
         style="display:inline;fill:#000000;stroke:#ffffff;stroke-width:0.412903;stroke-miterlimit:4;stroke-dasharray:none;stroke-opacity:1"
         d="m 44.656614,166.48382 -0.03656,0.0312 0.02742,0.15376 0.02957,0.0124 0.08871,-0.0989 -0.04247,-0.0694 z" /><path
         id="path15"
         clip-path="none"
         style="display:inline;fill:#000000;stroke:#ffffff;stroke-width:0.412903;stroke-miterlimit:4;stroke-dasharray:none;stroke-opacity:1"
         d="m 44.908227,164.92898 c -0.05293,0.001 -0.106525,0.007 -0.132258,0.0113 -0.134441,0.0995 -0.278664,0.28282 -0.334408,0.44193 0.04077,0.0392 0.0659,0.13117 0.06505,0.18549 l 0.03118,0.029 c 0.04263,-0.0361 0.15116,-0.0947 0.210752,-0.0774 0.121468,-0.15724 0.224892,-0.34945 0.304301,-0.53064 l -0.01505,-0.0446 c -0.02402,-0.0135 -0.07664,-0.0165 -0.129569,-0.0151 z" /><path
         id="path14"
         clip-path="none"
         style="display:inline;fill:#000000;stroke:#ffffff;stroke-width:0.412903;stroke-miterlimit:4;stroke-dasharray:none;stroke-opacity:1"
         d="m 45.268979,164.83489 c -0.04818,0.0748 -0.08247,0.19566 -0.04355,0.28119 l 0.05591,-0.0317 c 0.02196,-0.0586 0.03229,-0.15619 0.01505,-0.21721 z" /><path
         id="path13"
         clip-path="none"
         style="display:inline;fill:#000000;stroke:#ffffff;stroke-width:0.412903;stroke-miterlimit:4;stroke-dasharray:none;stroke-opacity:1"
         d="m 43.499627,163.57361 c -0.05289,0.0326 -0.09198,0.1558 -0.09839,0.21182 l 0.03495,0.0688 0.03602,-0.003 0.02581,-0.17634 0.04462,-0.0521 z" /><path
         id="path12"
         clip-path="none"
         style="display:inline;fill:#000000;stroke:#ffffff;stroke-width:0.412903;stroke-miterlimit:4;stroke-dasharray:none;stroke-opacity:1"
         d="m 44.231346,161.60856 c -0.115053,0.0888 -0.263609,0.0986 -0.382795,0.16774 -0.01768,0.0103 -0.110897,0.11497 -0.136559,0.13494 -0.07228,0.0566 -0.159176,0.10636 -0.236021,0.15753 -0.04049,0.0271 -0.09392,0.21627 -0.09893,0.25591 -0.08439,0.0498 -0.477877,0.25003 -0.495698,0.33871 l 0.08602,0.0941 -0.03011,0.13602 0.02688,0.0731 c 0.136295,0.0797 0.339066,0.10079 0.440859,0.22312 0.02638,0.0618 0.03171,0.17 0.0097,0.23387 l 0.03064,0.0409 0.174731,-0.0221 0.04516,0.17796 c 0.04534,0.0521 0.253596,0.0411 0.312903,0.0328 l 0.156989,0.0984 0.01882,0.0527 c -0.155399,0.094 -0.206423,0.43225 -0.150538,0.58978 l 0.110753,-0.0183 -0.01882,-0.057 0.01613,-0.036 0.107526,-0.002 0.05269,-0.11559 0.05538,0.009 0.02312,0.0613 -0.0414,0.10323 0.03441,0.10538 0.206451,-0.0134 0.06452,-0.0715 c -0.134585,-0.18433 -0.0069,-0.43025 -0.01452,-0.62742 -0.0012,-0.0282 -0.07541,-0.20079 -0.08011,-0.23871 -0.0278,-0.23196 0.127936,-0.46086 0.175268,-0.67742 0.01866,-0.0845 0.0077,-0.21615 0.01075,-0.30483 l 0.0022,-0.0731 0.104839,-0.11183 -0.02742,-0.0446 -0.09086,-0.009 -0.03064,-0.0887 0.02151,-0.10377 -0.0457,-0.12204 c -0.072,-0.0456 -0.177448,-0.0968 -0.240322,-0.15215 -0.05047,-0.0445 -0.09732,-0.17749 -0.167742,-0.19516 z" /><path
         id="path11"
         clip-path="none"
         style="display:inline;fill:#000000;stroke:#f9ffff;stroke-width:0.412903;stroke-miterlimit:4;stroke-dasharray:none;stroke-opacity:1"
         d="m 48.216285,155.629 c 0.0095,0.0853 0.01829,0.17151 0.03441,0.25107 l 0.103763,0.0312 c 0.224543,0.29412 0.450556,0.66541 0.57473,1.01613 0.06358,0.17964 0.0161,0.45778 0.06613,0.6414 0.07898,0.28956 0.303025,0.50254 0.362903,0.76828 -0.01911,0.0357 -0.01228,0.1055 0.0032,0.14086 0.216702,0.11591 0.268971,0.50033 0.289785,0.7129 0.01368,0.13786 -0.02822,0.31404 -0.0016,0.44677 0.02951,0.14585 0.181108,0.31115 0.205914,0.50591 0.0057,0.0447 -0.01523,0.10083 -0.0086,0.14517 0.0033,0.0221 0.04667,0.0948 0.04839,0.11397 0.007,0.078 -0.02729,0.1755 -0.01559,0.25162 0.0382,0.24679 0.246066,0.42391 0.305376,0.64731 0.01555,0.0587 0.04288,0.13195 0.01935,0.19354 l -0.10914,0.0989 -0.01022,0.057 c 0.374382,0.30295 0.244562,0.72656 0.698923,0.92473 l 0.09946,0.20752 c -0.04662,0.34644 -0.09516,0.34199 0.191397,0.5785 l 0.03387,0.26129 0.116667,0.10161 0.04301,0.12366 c 0.06045,0.0733 0.248837,0.0446 0.360752,0.17688 0.101223,0.11976 0.0962,0.34319 0.204839,0.49032 0.134156,0.0476 0.331199,0.14273 0.429569,0.25107 0.05788,0.26917 -0.02591,0.43889 -0.0091,0.64033 0.01168,0.14015 0.0899,0.28753 0.104301,0.42795 0.01025,0.1028 -0.07201,0.23844 -0.02796,0.34678 0.04876,0.12019 0.132643,0.2301 0.182258,0.34999 0.07514,0.18121 0.120348,0.37698 0.194623,0.55861 0.03992,0.0979 0.118582,0.19153 0.153225,0.29032 0.04918,0.13986 0.07381,0.31104 0.108602,0.45645 0.0028,0.0118 0.05402,0.059 0.06129,0.0747 0.06215,0.13159 0.205913,0.3743 0.205913,0.52258 0,0.0924 -0.05276,0.22136 -0.06774,0.31559 -0.03023,0.19176 -0.15409,0.72069 0.03011,0.89462 l 0.110215,0.1043 -0.04032,0.14516 c -0.04292,0.0391 -0.243382,0.19892 -0.239247,0.25538 l 0.05376,0.13979 c 0.01255,0.0764 -0.09243,0.15297 -0.116667,0.21612 -0.01497,0.0388 -0.01479,0.0631 -0.02419,0.10377 -0.0181,0.0779 -0.115188,0.35869 -0.119892,0.38978 -0.0093,0.0598 0.02006,0.13671 0.01236,0.19731 -0.01782,0.1417 -0.08581,0.28371 -0.101075,0.42527 -0.02339,0.21727 -0.02504,0.46544 -0.11129,0.66989 l 0.104301,0.27581 c -0.01454,0.0433 -0.157143,0.4536 -0.15914,0.47043 -0.0082,0.065 0.03659,0.54221 0.07366,0.63387 -0.08853,0.0741 -0.04877,0.80215 -0.166666,0.86559 l -0.129032,0.0554 -0.02258,0.0484 0.07258,0.0672 c -0.04505,0.28441 0.04982,0.57376 0.113978,0.84678 0.01925,0.0809 -0.07289,0.16277 -0.121505,0.21182 l -0.01075,0.0726 c 0.212709,0.33232 0.137906,0.55293 0.288172,0.87042 0.08896,0.18834 0.223723,0.36613 0.318816,0.55645 0.06145,0.12304 0.216512,0.50037 0.303763,0.60914 0.06658,0.0828 0.188179,0.15006 0.246774,0.23602 0.06173,0.0904 0.08036,0.23124 0.137096,0.32689 0.0442,0.0745 0.38362,0.34899 0.498387,0.55214 0.09324,0.1651 0.199051,0.36246 0.272042,0.5371 0.06758,0.16138 0.09349,0.34856 0.165054,0.50753 0.06373,0.14157 0.383897,0.40757 0.484407,0.65322 0.04049,0.0989 0.09808,0.25575 0.117742,0.35968 0.01782,0.0948 -0.04427,0.15446 0.01505,0.28548 0.04377,0.0972 0.1975,0.11646 0.269354,0.23979 0.132017,0.22596 0.194832,0.50197 0.327419,0.7258 0.103361,0.17436 0.248657,0.37079 0.373117,0.53118 0.151122,0.19502 0.34005,0.32941 0.412903,0.5742 0.02481,0.083 -0.09818,0.57216 -0.132258,0.67096 -0.02609,0.0755 -0.08146,0.14768 -0.104838,0.22366 -0.03565,0.11577 -0.05301,0.25163 -0.07796,0.37096 -0.03835,0.18249 -0.07852,0.2358 -0.07796,0.4699 l 0.06129,0.0989 0.08333,0.0145 0.09677,0.11075 0.131183,0.029 0.0457,0.1043 -0.05054,0.0608 -0.07849,0.0263 -0.06505,-0.10699 -0.145161,0.0269 -0.02312,-0.14839 -0.07097,0.002 -0.209139,0.3387 0.123655,0.2914 0.06882,0.0468 0.129569,10e-4 0.04409,-0.13011 0.05538,0.003 0.08065,0.0667 0.134409,0.005 0.02957,0.0844 0.112365,-0.0672 c 0.07913,0.0501 0.360708,-0.0548 0.448386,-0.0785 l 0.03118,-0.0167 c 0.141286,-0.21314 0.276977,-0.4393 0.427956,-0.64516 0.147699,-0.20159 0.575195,-0.55025 0.848923,-0.50592 0.130592,0.13302 0.190604,0.14499 0.361828,0.1457 l 0.06559,0.0866 c 0.0382,0.0188 0.114106,0.002 0.149462,-0.0145 0.06145,0.027 0.165928,0.0947 0.2,0.15591 0.04591,4e-4 0.116687,0.007 0.158602,0.029 l 0.104838,-0.0543 0.128495,0.078 c 0.301815,-0.0707 0.329653,0.0952 0.389246,0.10806 0.429698,0.0921 0.736321,0.10464 1.057525,0.4086 0.04149,-0.007 0.08822,-0.008 0.12957,0.002 l 0.08064,0.0704 c 0.08084,-0.0168 0.180222,-0.0639 0.258064,-0.0694 0.182058,-0.0133 0.454224,0.17302 0.612902,0.25699 0.07014,0.0372 0.165149,0.0699 0.226881,0.11505 0.03835,0.0281 0.20497,0.18907 0.228495,0.20162 0.08126,0.0433 0.389353,0.082 0.490859,0.0736 0.281285,0.26873 0.49447,0.023 0.626343,0.48925 -0.0012,0.0902 -0.01952,0.21341 -0.0032,0.2914 0.05318,0.25876 0.427467,0.19204 0.569892,0.31451 l 0.11344,-0.043 0.17043,0.0495 c 0.385502,-0.28171 0.614997,-0.07 0.81559,-0.2258 l 0.177957,0.0403 c 0.05133,-0.0462 0.174204,-0.0678 0.239784,-0.0613 0.04876,0.0481 0.165809,0.0693 0.230107,0.0522 0.06771,-0.0869 0.115987,-0.0691 0.186559,-0.1086 0.05474,-0.0306 0.101059,-0.0846 0.155376,-0.11613 0.09082,-0.0528 0.194867,-0.0959 0.289247,-0.14247 0.152547,0.0336 0.569253,-0.31432 0.697848,-0.38817 0.102792,-0.0587 0.196839,-0.022 0.284946,-0.16237 0.09352,-0.0293 0.165859,0.037 0.245698,0.0672 0.229674,0.087 0.425669,0.0873 0.484408,0.36506 -0.0052,0.0423 -0.03812,0.13018 -0.08118,0.15 l -0.253225,0.0414 c -0.283995,-0.18477 -0.432191,0.0175 -0.630644,-0.26236 l -0.08065,0.0344 c 0.07214,0.0624 0.168995,0.1653 0.264516,0.18925 0.0566,0.0141 0.122683,0.007 0.179569,0.0215 0.03336,0.009 0.194479,0.0783 0.213441,0.0796 0.295114,0.0196 0.635202,-0.1974 0.891396,-0.31559 0.287416,-0.13273 0.340226,0.35733 0.769353,0.0371 0.08739,0.0174 0.189455,0.0482 0.277419,0.0554 0.09638,0.008 0.169686,-0.1222 0.241398,-0.16183 0.08311,-0.0456 0.192306,-0.0591 0.277419,-0.10215 0.05916,-0.0296 0.114478,-0.089 0.171505,-0.12419 0.191894,-0.11805 1.190484,-0.56309 1.366126,-0.55269 l 0.05914,0.0269 0.106989,0.21182 0.05806,-0.0215 0.569354,-0.80376 c 0.08297,-0.11677 0.196718,-0.21532 0.282258,-0.33065 0.142139,-0.19147 0.261842,-0.37998 0.423655,-0.55591 0.264606,-0.28812 0.648827,-0.48251 0.988708,-0.66129 0.01768,-0.009 0.114336,-0.0641 0.126881,-0.0672 0.31821,-0.0783 0.717013,-0.14 1.039783,-0.10322 0.269739,0.0309 0.559819,0.11239 0.827418,0.16613 0.06658,0.0134 0.598737,0.36139 0.641935,0.39946 0.05019,0.0443 0.102105,0.12545 0.145161,0.17849 l 0.101075,-0.0946 0.03118,-0.0124 0.07151,0.0392 0.02527,0.0516 -0.01129,0.0726 -0.105914,0.022 -0.02688,0.23763 -0.08925,0.0866 0.07742,0.15968 0.217741,-0.19355 0.01774,-0.11236 c 0.335176,-0.16067 0.789024,-0.33762 1.163977,-0.21345 0.0086,0.003 0.235306,0.15197 0.254838,0.16452 l 0.02527,0.0801 -0.07903,0.22258 0.02849,0.0763 c 0.05018,0.0498 0.175413,0.0674 0.245699,0.0844 l 0.105913,0.18333 0.124731,-0.11075 c 0.08612,-0.027 0.366369,0.029 0.453763,0.0484 l 0.01505,-0.0446 -0.04892,-0.0914 0.01936,-0.0409 0.301612,0.0919 -0.132795,-0.15537 0.05699,-0.0892 c 0.156965,-0.0645 0.302294,-0.0346 0.461827,-0.0118 0.05446,-0.0787 0.0042,-0.12845 0.0086,-0.19731 0.0031,-0.056 0.05282,-0.10328 0.02473,-0.16559 -0.0044,-0.003 -0.02759,-0.023 -0.03172,-0.0237 -0.06173,-0.009 -0.136258,-0.0273 -0.197849,-0.0285 -0.111059,-0.002 -0.238641,0.0414 -0.347849,0.0194 -0.359697,-0.0725 -0.235825,-0.25642 -0.659676,-0.0914 l -0.04086,-0.0876 c 0.04591,-0.0838 0.120411,-0.26421 0.212365,-0.29301 l 0.185483,5.4e-4 c 0.116478,0.1363 0.24093,0.26727 0.361828,0.4 l 0.121505,-0.0177 c -0.0048,-0.31066 0.151569,-0.6077 0.417741,-0.77151 0.0998,-0.0615 0.389723,-0.0935 0.512902,-0.1172 0.198453,-0.0384 0.423509,-0.0707 0.613978,0.022 l 0.07419,-0.0376 c 0.03008,-0.0435 0.01945,-0.14348 0.0043,-0.18925 l 0.04624,-0.10968 0.0672,0.007 c 0.06187,0.0557 0.13411,0.10859 0.169892,0.18387 0.03607,0.0755 0.07708,0.19665 0.125269,0.26237 0.07157,0.0981 0.199353,0.10909 0.22473,0.27419 l -0.01022,0.0683 -0.08925,0.0978 -0.07849,0.0172 -0.230645,-0.0919 -0.475268,0.10322 -0.02527,0.14194 c 0.02067,0.0583 0.302815,0.22628 0.382795,0.27903 0.02467,0.0501 0.07755,0.18433 0.133871,0.19516 0.124605,0.0243 0.479828,0.13585 0.583332,0.003 0.0021,-0.0353 0.01989,-0.12733 0.05269,-0.15 0.0546,-0.0165 0.15681,0.04 0.195161,0.0731 l 0.05054,-0.0124 0.03118,-0.057 -0.06559,-0.11613 0.01022,-0.12849 -0.02903,-0.0435 -0.137634,-0.0145 -0.05269,-0.0511 c -0.02338,-0.0504 -0.01466,-0.15352 -0.0038,-0.20484 0.03179,-0.18606 0.0436,-0.37238 0.09892,-0.54731 0.05261,-0.16581 0.09634,-0.36179 0.165054,-0.51989 0.232813,-0.53534 0.556429,-1.03252 0.75645,-1.58226 l 0.473655,-0.48226 c 0.0093,-0.009 0.0183,-0.0536 0.02742,-0.0613 0.07214,-0.0615 0.165182,-0.16209 0.245161,-0.20914 0.129737,-0.0765 0.439126,-0.21412 0.596236,-0.26344 0.309655,-0.0972 0.624377,-0.18686 0.931181,-0.29193 0.07755,-0.0265 0.15015,-0.0763 0.227419,-0.1043 0.196885,-0.0713 0.400835,-0.13083 0.599999,-0.1957 0.04563,-0.0148 0.09166,-0.0325 0.138709,-0.0425 0.144849,-0.0308 0.294873,-0.0718 0.440859,-0.0941 0.252772,-0.0387 0.763713,-0.0184 0.984407,-0.15968 0.203303,-0.1303 0.3607,-0.32521 0.523655,-0.49999 0.07,-0.0748 0.117259,-0.16705 0.184408,-0.23818 0.198169,-0.21001 0.41973,-0.40822 0.626881,-0.60967 0.214422,-0.20829 0.23613,-0.44102 0.370429,-0.6285 0.280856,-0.3922 0.56424,-0.80594 0.897848,-1.15537 0.14656,-0.15369 0.299509,-0.30483 0.441935,-0.46237 0.03835,-0.0423 0.06507,-0.10226 0.104839,-0.14247 0.118045,-0.1189 0.32176,-0.25086 0.418278,-0.34838 0.04163,-0.0422 0.07139,-0.1171 0.115592,-0.15431 0.06801,-0.0569 0.167646,-0.0909 0.239784,-0.14408 0.116051,-0.086 0.2077,-0.23576 0.315053,-0.33441 0.168515,-0.15469 0.399896,-0.31931 0.610752,-0.40699 0.305238,-0.12674 0.687853,-0.0208 0.777955,-0.0634 l 0.401075,-0.19032 c 0.10607,-0.0505 0.200939,-10e-4 0.304301,-0.0204 0.07499,-0.0137 0.115001,-0.0301 0.188709,-0.0495 l 0.377956,-0.0995 c 0.139574,-0.0447 0.260611,-0.13948 0.41344,-0.1543 0.02196,-0.002 0.08205,0.019 0.106989,0.0183 0.0931,-0.003 0.205837,-0.0328 0.294086,-0.0554 0.185337,-0.0473 0.394308,-0.1299 0.580644,-0.15699 0.01283,-0.002 0.116325,0.0249 0.138709,0.0263 0.133727,0.009 0.322117,-0.0109 0.45,-0.0387 0.140286,-0.0302 0.267462,-0.13569 0.41559,-0.17204 0.206295,-0.008 0.41447,-0.001 0.610214,-0.0183 0.20544,-0.0182 0.387621,-0.11779 0.582795,-0.16398 0.02138,-0.005 0.09911,0.006 0.126344,0.003 0.166377,-0.0211 0.328291,-0.0614 0.496235,-0.0774 0.02523,-0.002 0.03971,-0.0114 0.06452,-0.006 0.172363,0.0343 0.261033,0.15 0.570968,0.15 0.20316,0 0.51675,-0.0602 0.72205,-0.093 0.10906,-0.0174 0.23075,-0.0688 0.33924,-0.0763 0.12219,-0.008 0.2568,0.029 0.38011,0.0264 0.0209,-4e-4 0.0926,-0.0338 0.11774,-0.0371 0.70029,-0.0824 1.40987,-0.24022 2.09946,-0.0328 0.0106,0.003 0.043,6.1e-4 0.0554,0.002 0.0807,0.003 0.18746,-0.004 0.26559,0.0113 0.0597,0.0113 0.12291,0.0576 0.18279,0.0737 0.0854,0.0227 0.17924,0.0238 0.26506,0.0452 0.0713,0.0176 0.15938,0.07 0.2301,0.078 0.0255,0.003 0.16557,-0.0306 0.20108,-0.0301 0.0193,2e-4 0.10265,0.0367 0.11505,0.0339 0.41716,-0.0871 0.44772,-0.11438 0.86559,-0.0914 l 0.0307,0.001 c 0.0824,0.0737 0.13364,0.12948 0.23172,0.17097 0.12732,-0.0316 0.26173,-0.0746 0.39032,-0.0968 0.0769,-0.0131 0.16262,-4.9e-4 0.24032,-0.0113 0.13957,-0.0191 0.25269,-0.0556 0.40054,-0.0704 l 0.38924,-0.0392 c 0.13058,-0.0272 0.25949,-0.11382 0.38979,-0.14462 0.16624,-0.0392 0.35188,-0.0406 0.52096,-0.0699 0.18591,-0.0323 0.40674,-0.11288 0.59194,-0.12258 0.28528,-0.0149 0.73965,0.0546 1.03064,0.1285 0.0694,0.0176 0.15393,0.0576 0.22151,0.064 0.1514,0.0138 0.30212,-0.11808 0.42473,-0.17796 0.1045,-0.0509 0.23284,-0.10645 0.34247,-0.14409 0.11505,-0.0394 0.24569,-0.0524 0.3586,-0.0962 0.14713,-0.0567 0.28549,-0.15565 0.43333,-0.20968 0.13729,-0.0501 0.30662,-0.0763 0.44947,-0.11183 0.008,-0.002 0.0682,-0.0158 0.0715,-0.0183 0.11035,-0.0802 0.23451,-0.19115 0.35269,-0.25645 0.0632,-0.0349 0.19831,-0.008 0.31236,-0.10752 0.1075,-0.0933 0.19789,-0.21716 0.30054,-0.31667 0.1072,-0.10364 0.26991,-0.13763 0.39409,-0.2129 0.10011,-0.0608 0.19913,-0.14627 0.29408,-0.21613 0.13801,-0.10123 0.50568,-0.21361 0.66237,-0.23172 0.14541,-0.0167 0.31672,0.0211 0.45914,-0.004 0.35327,-0.0631 0.71952,-0.18087 1.06881,-0.26827 0.22213,-0.0557 0.42744,-0.0347 0.65269,-0.057 0.15427,-0.0152 0.27577,-0.11753 0.41021,-0.18011 0.15255,-0.071 0.31697,-0.12613 0.4785,-0.17204 0.13615,-0.0387 0.26865,-0.0244 0.40537,-0.0489 0.11562,-0.0208 0.23588,-0.12651 0.35108,-0.14462 0.14969,-0.0235 0.32302,0.009 0.47043,-0.0199 0.28998,-0.0576 0.59426,-0.16783 0.8801,-0.24839 l 0.0392,-0.0134 c 0.25563,-0.0877 0.55895,-0.15879 0.80161,-0.27527 0.14271,-0.0683 0.23525,-0.18111 0.40591,-0.20806 0.277,-0.0436 0.60361,-0.0144 0.86936,-0.11559 0.32235,-0.1229 0.46707,-0.36179 0.73225,-0.55269 0.10551,-0.0757 0.23985,-0.12157 0.34678,-0.1957 0.0572,-0.0398 0.10096,-0.11141 0.15699,-0.15376 0.0704,-0.053 0.17026,-0.0865 0.23655,-0.14301 0.21158,-0.18091 0.41143,-0.39116 0.61344,-0.58334 l 0.029,-0.0306 c 0.13871,-0.14671 0.28009,-0.32304 0.43064,-0.45591 0.0687,-0.0608 0.18862,-0.0885 0.25591,-0.15054 0.2984,-0.27487 0.39227,-0.5551 0.79516,-0.68925 0.0794,-0.1554 0.14366,-0.32299 0.27796,-0.44032 0.0384,-0.0333 0.10399,-0.0567 0.13763,-0.093 0.0951,-0.10252 0.1815,-0.23355 0.26775,-0.34462 0.0418,-0.0539 0.26644,-0.0804 0.36666,-0.16291 0.0853,-0.0699 0.15584,-0.17943 0.24409,-0.24301 0.2542,-0.18306 0.80276,-0.45878 1.10914,-0.50967 0.34658,-0.0577 0.72037,0.0222 1.05698,-0.12742 0.10522,-0.0467 0.23339,-0.15527 0.33119,-0.22043 0.18946,-0.12617 0.4219,-0.25225 0.59569,-0.39624 0.23666,-0.19646 0.46084,-0.44842 0.68226,-0.66398 0.0516,-0.0505 0.0879,-0.12503 0.14086,-0.17365 0.14513,-0.13315 0.39075,-0.30592 0.55699,-0.40914 0.0601,-0.0377 0.13877,-0.0551 0.20107,-0.0898 0.0838,-0.0466 0.18562,-0.14238 0.27258,-0.17474 0.34972,-0.12945 0.76181,-0.12462 1.1285,-0.14301 0.31777,-0.016 0.91509,0.2141 1.19838,0.33172 0.0889,0.037 0.17323,0.0985 0.2629,0.13226 0.1095,0.0412 0.24315,0.0513 0.34893,0.0984 0.1065,0.0474 0.22543,0.14024 0.3258,0.20269 0.13857,0.086 0.25156,0.22293 0.3699,0.33655 l 0.0366,0.14086 0.11076,0.1 c 0.0919,0.0311 0.38562,0.0919 0.47258,0.0188 0.0161,-0.0709 0.0742,-0.22432 0.14086,-0.26666 l 0.0403,0.008 0.0952,0.0844 0.19839,0.0387 0.0952,0.14462 0.0962,0.004 0.0306,-0.0366 -0.0484,-0.1 0.0392,-0.0887 0.0323,-0.0204 0.19838,0.0435 0.0823,-0.12957 c 0.10478,-0.045 0.21398,0.0895 0.2586,0.16452 l 0.0393,-0.021 0.0704,-0.16935 c 0.14314,-0.085 0.35144,-0.17517 0.51882,-0.10645 l 0.0194,-0.0887 -0.0796,-0.12742 0.0312,-0.0575 c 0.0326,-0.009 0.0853,-0.0326 0.11881,-0.0328 0.24992,-8.1e-4 0.25927,0.0625 0.42851,0.0828 0.0353,0.004 0.16075,-0.0322 0.19837,-0.0285 l 0.1371,0.0452 c 0.16838,0.0552 0.35274,-0.0308 0.51184,-0.0919 0.066,0.0699 0.23931,0.11426 0.32956,0.11882 l 0.0355,-0.028 0.0113,-0.12473 0.0629,-0.0167 c 0.0999,0.005 0.18291,0.10713 0.23495,0.1844 0.005,0.13002 -0.008,0.27083 0.0645,0.38602 l 0.0876,-0.0118 c 0.0374,-0.0752 0.13278,-0.22289 0.2129,-0.26237 0.0751,-0.0291 0.26528,0.0157 0.33656,0.0387 0.25035,-0.34202 0.40117,-0.45898 0.7871,-0.57688 0.0724,-0.0221 0.14178,-0.0611 0.2172,-0.0661 0.21441,-0.0141 0.43238,-0.022 0.64624,-0.0425 0.26986,-0.0258 0.53234,-0.0771 0.80806,-0.0624 0.19931,0.0106 0.41121,0.0528 0.60967,0.0785 0.15425,0.0199 0.30652,-0.0396 0.42742,-0.13549 0.18106,-0.14371 0.67966,-0.50364 0.77903,-0.66075 0.0123,-0.0189 0.031,-0.10297 0.0436,-0.12849 0.0237,-0.0482 0.24145,-0.32631 0.26882,-0.35054 0.061,-0.0545 0.14859,-0.0373 0.18978,-0.14892 0.29997,-0.10593 0.50318,-0.19917 0.6285,-0.50484 l 0.1086,-0.0602 0.21613,-0.1215 c 0.23724,-0.21941 0.43302,-0.6663 0.70376,-0.93817 -0.0265,-0.0902 -0.0914,-0.40422 0.0306,-0.46667 l 0.0565,0.004 c 0.0505,-0.10079 0.34001,-0.10355 0.45107,-0.25053 l 0.0554,-0.004 0.0672,0.0925 c 0.0234,-0.11619 0.19322,-0.25362 0.29301,-0.29839 l -0.0237,-0.028 0.0667,-0.27419 0.0871,-0.0683 -0.0317,-0.0806 0.0113,-0.0516 0.0957,-0.0247 c 0.0178,-0.0206 0.14991,-0.16634 0.17043,-0.17688 0.14927,-0.0777 0.26612,-0.008 0.41182,-0.029 0.23581,-0.0336 0.3734,-0.2784 0.40377,-0.4914 -0.006,-0.13986 -0.22521,-0.20663 -0.22635,-0.32097 l 0.0989,-0.21398 c -0.0204,-0.054 -0.0244,-0.14578 -0.005,-0.20053 l 0.11129,-0.10914 c -0.0308,-0.27799 0.0513,-0.34143 0.13064,-0.41989 z" /></g></g><g
     inkscape:groupmode="layer"
     id="layer3"
     inkscape:label="label"
     sodipodi:insensitive="true"
     style="display:inline"><text
       xml:space="preserve"
       transform="matrix(0.26458333,0,0,0.26458333,13.193363,0)"
       id="text1"
       style="font-style:normal;font-variant:normal;font-weight:normal;font-stretch:normal;font-size:85.3333px;font-family:'Open Sans';-inkscape-font-specification:'Open Sans';white-space:pre;shape-inside:url(#rect2);display:inline;fill:#f9f9f9"><tspan
         x="262.96875"
         y="787.27104"
         id="tspan3"><tspan
           style="font-weight:600;-inkscape-font-specification:'Open Sans Semi-Bold'"
           id="tspan1">yemmaps</tspan></tspan></text></g><style
     type="text/css"
     id="style1">&#10;	.st0{fill:#F9ECC6;}&#10;	.st1{opacity:0.25;fill:url(#SVGID_1_);enable-background:new    ;}&#10;	.st2{fill:#484546;}&#10;	.st3{fill:#3E3221;}&#10;	.st4{fill:#FFFFFF;}&#10;</style></svg>
